<svg width="2192" height="768" viewBox="0 0 2192 768" fill="none" xmlns="http://www.w3.org/2000/svg">
<path d="M59.5 411.5C-238 581 775.5 572 462 412.5L59.5 411.5Z" fill="#0E1231" stroke="#0E1231" stroke-width="7"/>
<path d="M457 425.5C287 533 210.5 491 61 425.5C50 202 197 234.5 245 114C268.288 128.971 274.193 140.905 274 167.5C280.571 151.795 285.787 144.532 297.5 134C306 230 505.5 287 457 425.5Z" fill="#E7E4BE" stroke="#E7E4BE" stroke-width="7" stroke-linejoin="round"/>
<path d="M142 285C88 109.5 11 196 11.0001 51.0001C36.5 63.5 66.0001 4.00014 66.0001 4.00014C85.3448 34.3412 102.746 37.8054 142 27.0001C156 163 100.5 153 168 276.5C177.565 294 145.538 296.5 142 285Z" fill="#D9D9D9" stroke="#DBAA35" stroke-width="7" stroke-linejoin="round"/>
<path d="M142 285C88 109.5 11 196 11.0001 51.0001C36.5 63.5 66.0001 4.00014 66.0001 4.00014C85.3448 34.3412 102.746 37.8054 142 27.0001C156 163 100.5 153 168 276.5C177.565 294 145.538 296.5 142 285Z" fill="#E9A83C" stroke="#E9A83C" stroke-width="7" stroke-linejoin="round"/>
<path d="M452 11.0001C415.5 35.5001 406.339 47.6954 374.5 31.5001C355.5 134 442 150 355.5 276.5C359.17 288.141 363.597 289.131 374.5 285.5C463 116.5 487 178.5 509.5 47.5001C488.04 55.1122 452.939 31.6284 452 11.0001Z" fill="#E9A83C" stroke="#E9A83C" stroke-width="7" stroke-linejoin="round"/>
<path d="M1939.38 216C1855.35 334.8 1831.31 206.691 1579.38 379C1505.46 282.818 1338.14 329.586 1319.38 488C1314.84 521.422 1275.92 543.327 1356.38 561C1415.68 575.251 1491.38 557.5 1530.38 561C1672.1 574.611 2007.53 561.31 2026.88 561C2120.22 460.522 2092.55 363.396 1977.88 196C1979.8 223.048 1975.98 236.094 1957.88 254.5C1959.59 235.702 1956.21 226.991 1939.38 216Z" fill="#E3E5B9" stroke="#E7E4BE" stroke-width="7" stroke-linejoin="round"/>
<path d="M1396.38 499C1211.88 632.5 1561.88 565.5 1465.38 503.5C1432.85 508.798 1415.83 510.229 1396.38 499Z" fill="#E9A83C" stroke="#E9A83C" stroke-width="7" stroke-linecap="round" stroke-linejoin="round"/>
<path d="M1670.38 481.5C1820.38 373 2074.31 455.06 1928.88 561" stroke="#C0C29B" stroke-width="7" stroke-linecap="round" stroke-linejoin="round"/>
<path d="M2026.38 559.5C2312.38 602.5 2158.38 464.5 2060.38 517C2037.04 532.982 2032.43 542.461 2026.38 559.5Z" fill="#E9A83C" stroke="#E9A83C" stroke-width="2" stroke-linecap="round" stroke-linejoin="round"/>
<path d="M1345.38 502C1352.75 517.045 1393.04 500.461 1380.88 481.5C1373.02 469.263 1337.82 487.029 1345.38 502Z" fill="#A0771E" stroke="#A0771E" stroke-width="2" stroke-linecap="round" stroke-linejoin="round"/>
<path d="M1475.82 486.273C1468.16 504.773 1523.38 518 1526.32 496.773C1526.32 477.5 1483.66 472.273 1475.82 486.273Z" fill="#A0771E" stroke="#A0771E" stroke-width="2" stroke-linecap="round" stroke-linejoin="round"/>
<path d="M1540.88 347C1614.79 392.61 1612.38 481.5 1605.88 516" stroke="#C0C29B" stroke-width="7" stroke-linecap="round" stroke-linejoin="round"/>
<path d="M1398.54 344.646C1416.59 281.924 1437.22 262.309 1492.04 254.646C1512.04 247.146 1556.47 260.262 1565.54 279.146C1632.68 334.426 1625.36 368.169 1607.54 428.646C1732.53 584.718 1230.89 317.949 1398.54 344.646Z" fill="#E9A83C"/>
<path d="M1398.54 344.646C1416.59 281.924 1437.22 262.309 1492.04 254.646C1512.04 247.146 1556.47 260.262 1565.54 279.146M1398.54 344.646C1427.04 404.646 1575.54 456.646 1607.54 428.646M1398.54 344.646C1230.89 317.949 1732.53 584.718 1607.54 428.646M1565.54 279.146C1632.68 334.426 1625.36 368.169 1607.54 428.646M1565.54 279.146C1588.95 348.759 1588.13 379.168 1570.04 423.146L1551.54 418.646C1558.04 374.146 1560.27 309.156 1492.04 258.646" stroke="#C69A30" stroke-width="7" stroke-linecap="round" stroke-linejoin="round"/>
<path d="M586 613L719.5 542.5L726.834 542.645L791 374.5H837.5L887.119 545.805L897 546L1027.5 623.5L767 764.5L586 613Z" fill="#E9A83C"/>
<path d="M719.5 542.5L586 613L767 764.5L1027.5 623.5L897 546L719.5 542.5ZM708 592L791 374.5H837.5L900.5 592C837.5 673 731 649.5 708 592Z" stroke="#C4A459" stroke-width="7" stroke-linecap="round" stroke-linejoin="round"/>
<path d="M881.5 526.5C820.18 550.006 792.805 550.618 731.5 530.5L719.5 562C776.287 582.764 812.023 579.613 890.5 557L881.5 526.5Z" fill="#FFF9F3"/>
<path d="M855 434.5C818.784 446.659 799.206 448.013 765.5 441.5L754 471.5C799.03 480.243 822.823 478.204 862 459L855 434.5Z" fill="#FFF9F3"/>
<path d="M881.5 526.5C820.18 550.006 792.805 550.618 731.5 530.5L719.5 562C776.287 582.764 812.023 579.613 890.5 557L881.5 526.5Z" stroke="#FFF9F3" stroke-width="7" stroke-linecap="round" stroke-linejoin="round"/>
<path d="M855 434.5C818.784 446.659 799.206 448.013 765.5 441.5L754 471.5C799.03 480.243 822.823 478.204 862 459L855 434.5Z" stroke="#FFF9F3" stroke-width="7" stroke-linecap="round" stroke-linejoin="round"/>
<path d="M837.5 375C837.5 375.27 837.38 375.865 836.45 376.761C835.51 377.666 833.966 378.643 831.771 379.537C827.399 381.318 821.118 382.5 814 382.5C806.882 382.5 800.601 381.318 796.229 379.537C794.034 378.643 792.49 377.666 791.55 376.761C790.62 375.865 790.5 375.27 790.5 375C790.5 374.73 790.62 374.135 791.55 373.239C792.49 372.334 794.034 371.357 796.229 370.463C800.601 368.682 806.882 367.5 814 367.5C821.118 367.5 827.399 368.682 831.771 370.463C833.966 371.357 835.51 372.334 836.45 373.239C837.38 374.135 837.5 374.73 837.5 375Z" fill="black" stroke="#C4A459" stroke-width="7"/>
</svg>
