<svg xmlns="http://www.w3.org/2000/svg" xmlns:xlink="http://www.w3.org/1999/xlink" version="1.1" width="1000" height="1000" viewBox="0 0 1000 1000" xml:space="preserve">
<desc>Created with Fabric.js 3.5.0</desc>
<defs>
</defs>
<rect x="0" y="0" width="100%" height="100%" fill="rgba(255,255,255,0)"/>
<g transform="matrix(1.0153 0 0 1.0153 500.0006 500.0005)" id="732731">
<path style="stroke: none; stroke-width: 1; stroke-dasharray: none; stroke-linecap: butt; stroke-dashoffset: 0; stroke-linejoin: miter; stroke-miterlimit: 4; is-custom-font: none; font-file-url: none; fill: rgb(191,211,193); fill-rule: nonzero; opacity: 1;" vector-effect="non-scaling-stroke" transform=" translate(-510.8057, -511.7438)" d="M 939.834088 334.002027 L 542.991852 192.07048 c -24.77936 -9.369392 -19.529799 -9.369392 -44.149523 -0.176009 L 99.708909 332.641029 c -24.460088 9.193383 -24.460088 24.337291 0.327458 33.533744 l 94.864578 33.525558 c -42.017976 42.382273 -44.808532 86.458117 -45.296649 137.517003 c -16.254196 6.471388 -27.738761 22.808472 -27.738761 42.042535 c 0 17.697057 9.68457 32.836873 23.791869 40.325427 c -6.729262 51.9113 -25.927509 111.143333 -82.548064 181.26539 c 27.894304 22.459524 42.345434 30.119995 64.166415 37.615713 c 79.109756 -35.403325 69.425186 -129.181151 63.35084 -222.61924 c 10.836813 -8.16803 17.894555 -21.447475 17.894555 -36.58729 c 0 -16.172331 -8.204869 -30.308283 -20.35356 -38.132482 c 1.475608 -50.030463 11.816117 -94.785783 47.759747 -123.725906 c 0.331551 -0.680499 1.147126 -1.528819 2.622734 -2.041496 l 57.276495 20.25123 l 206.29853 72.843028 c 24.783453 9.365298 19.533892 9.365298 44.149523 0.167822 l 393.719106 -140.742465 C 964.782294 358.347504 964.613448 343.194386 939.834088 334.002027 L 939.834088 334.002027 L 939.834088 334.002027 L 939.834088 334.002027 z M 800.841477 510.577604 l 0 245.918899 c -3.421936 59.575864 -204.925253 81.969896 -204.925253 81.969896 L 472.960869 838.4664 c 0 0 -201.789842 -27.431769 -204.925253 -81.969896 L 268.035616 510.577604 l 245.910713 81.97399 l 40.98546 0 L 800.841477 510.577604 z" stroke-linecap="round"/>
</g>
</svg>