<svg xmlns="http://www.w3.org/2000/svg" xmlns:xlink="http://www.w3.org/1999/xlink" version="1.1" width="1000" height="1000" viewBox="0 0 1000 1000" xml:space="preserve">
<desc>Created with Fabric.js 3.5.0</desc>
<defs>
</defs>
<rect x="0" y="0" width="100%" height="100%" fill="rgba(255,255,204,0)"></rect>
<g transform="matrix(24.4071 0 0 24.4071 499.9999 621.1475)" id="493675"  >
<g style="" vector-effect="non-scaling-stroke"   >
		<g transform="matrix(1 0 0 1 -0.008 -4)"  >
<path style="stroke: none; stroke-width: 1; stroke-dasharray: none; stroke-linecap: butt; stroke-dashoffset: 0; stroke-linejoin: round; stroke-miterlimit: 2; is-custom-font: none; font-file-url: none; fill: rgb(191,211,193); fill-rule: evenodd; opacity: 1;"  transform=" translate(-111.992, -304)" d="M 101.2 318 L 122.8 318 C 123.383 318 123.943 317.768 124.356 317.356 C 124.768 316.943 125 316.383 125 315.8 L 125 303.739 C 126.086 303.01 126.837 301.821 126.974 300.453 C 126.975 300.449 126.975 300.446 126.975 300.443 C 127.009 300.071 126.947 299.697 126.795 299.356 C 126.291 298.199 124.062 293.184 123.227 291.307 C 122.874 290.512 122.086 290 121.217 290 L 102.777 290 C 101.907 290 101.119 290.512 100.766 291.307 C 99.933 293.183 97.706 298.193 97.19 299.352 C 97.038 299.693 96.975 300.069 97.009 300.442 C 97.009 300.448 97.01 300.453 97.01 300.459 C 97.155 301.828 97.911 303.016 99 303.744 L 99 315.8 C 99 316.383 99.232 316.943 99.644 317.356 C 100.057 317.768 100.617 318 101.2 318 Z M 111 316 L 122.8 316 C 122.853 316 122.904 315.979 122.941 315.941 C 122.979 315.904 123 315.853 123 315.8 L 123 304.472 C 122.835 304.491 122.667 304.5 122.497 304.5 C 121.084 304.5 119.822 303.847 118.997 302.827 C 118.172 303.847 116.91 304.5 115.497 304.5 C 114.084 304.5 112.822 303.847 111.997 302.827 C 111.172 303.847 109.91 304.5 108.497 304.5 C 107.084 304.5 105.822 303.847 104.997 302.827 C 104.172 303.847 102.91 304.5 101.497 304.5 C 101.329 304.5 101.163 304.491 101 304.473 L 101 315.8 C 101 315.853 101.021 315.904 101.059 315.941 C 101.096 315.979 101.147 316 101.2 316 L 103 316 L 103 308.2 C 103 307.617 103.232 307.057 103.644 306.644 C 104.057 306.232 104.617 306 105.2 306 C 106.246 306 107.754 306 108.8 306 C 109.383 306 109.943 306.232 110.356 306.644 C 110.768 307.057 111 307.617 111 308.2 L 111 316 Z M 109 316 L 109 308.2 C 109 308.147 108.979 308.096 108.941 308.059 C 108.904 308.021 108.853 308 108.8 308 L 105.2 308 C 105.147 308 105.096 308.021 105.059 308.059 C 105.021 308.096 105 308.147 105 308.2 L 105 316 L 109 316 Z M 108.718 292 L 110.997 292 L 110.997 300 C 110.997 301.38 109.877 302.5 108.497 302.5 C 107.167 302.5 106.079 301.46 106.001 300.149 L 108.718 292 Z M 106.609 292 L 102.777 292 C 102.698 292 102.626 292.047 102.594 292.119 L 99.017 300.166 C 99.004 300.195 98.998 300.227 99.001 300.263 C 99.141 301.519 100.205 302.5 101.497 302.5 C 102.871 302.5 103.988 301.389 103.997 300.016 C 103.995 299.906 104.011 299.794 104.048 299.684 L 106.609 292 Z M 115.276 292 L 117.992 300.149 C 117.915 301.46 116.827 302.5 115.497 302.5 C 114.117 302.5 112.997 301.38 112.997 300 L 112.997 292 L 115.276 292 Z M 117.384 292 L 119.946 299.684 C 119.982 299.794 119.999 299.906 119.997 300.016 C 120.006 301.389 121.122 302.5 122.497 302.5 C 123.789 302.5 124.854 301.518 124.984 300.26 L 124.984 300.256 C 124.985 300.226 124.98 300.196 124.968 300.168 C 124.967 300.166 124.966 300.164 124.965 300.162 C 124.458 299 122.233 293.993 121.4 292.119 C 121.4 292.119 121.4 292.119 121.4 292.119 C 121.368 292.047 121.296 292 121.217 292 L 117.384 292 Z" stroke-linecap="round" />
</g>
		<g transform="matrix(1.5012 0 0 1.0012 4.9996 2.0021)"  >
<path style="stroke: none; stroke-width: 1; stroke-dasharray: none; stroke-linecap: butt; stroke-dashoffset: 0; stroke-linejoin: round; stroke-miterlimit: 2; is-custom-font: none; font-file-url: none; fill: rgb(191,211,193); fill-rule: evenodd; opacity: 1;"  transform=" translate(-105.9985, -312.5)" d="M 108.663 314.301 L 108.663 310.699 C 108.663 309.485 108.007 308.501 107.197 308.501 C 106.501 308.501 105.496 308.501 104.799 308.501 C 103.99 308.501 103.334 309.485 103.334 310.699 L 103.334 314.301 C 103.334 315.515 103.99 316.499 104.799 316.499 C 105.496 316.499 106.501 316.499 107.197 316.499 C 108.007 316.499 108.663 315.515 108.663 314.301 Z M 107.331 310.699 L 107.331 314.301 C 107.331 314.412 107.271 314.501 107.197 314.501 L 104.799 314.501 C 104.726 314.501 104.666 314.412 104.666 314.301 C 104.666 314.301 104.666 310.699 104.666 310.699 C 104.666 310.588 104.726 310.499 104.799 310.499 L 107.197 310.499 C 107.271 310.499 107.331 310.588 107.331 310.699 Z" stroke-linecap="round" />
</g>
		<g transform="matrix(1 0 0 1 17.2019 25.4336)" style=""  >
		<text xml:space="preserve" font-family="'Helvetica Neue', Helvetica, Arial-Unicode, Arial, Sans-serif" font-size="5" font-style="normal" font-weight="bold" style="stroke: none; stroke-width: 1; stroke-dasharray: none; stroke-linecap: butt; stroke-dashoffset: 0; stroke-linejoin: round; stroke-miterlimit: 2; is-custom-font: none; font-file-url: none; fill: rgb(0,0,0); fill-rule: evenodd; opacity: 1; white-space: pre;" ><tspan x="-33.2019" y="1.5707" >Created by Alfan Zulkarnain</tspan></text>
</g>
		<g transform="matrix(1 0 0 1 10.2512 30.4336)" style=""  >
		<text xml:space="preserve" font-family="'Helvetica Neue', Helvetica, Arial-Unicode, Arial, Sans-serif" font-size="5" font-style="normal" font-weight="bold" style="stroke: none; stroke-width: 1; stroke-dasharray: none; stroke-linecap: butt; stroke-dashoffset: 0; stroke-linejoin: round; stroke-miterlimit: 2; is-custom-font: none; font-file-url: none; fill: rgb(0,0,0); fill-rule: evenodd; opacity: 1; white-space: pre;" ><tspan x="-26.2512" y="1.5707" >from the Noun Project</tspan></text>
</g>
</g>
</g>
</svg>