<svg width="324" height="965" viewBox="0 0 324 965" fill="none" xmlns="http://www.w3.org/2000/svg">
<path d="M21.478 11.2923C48.9026 0.963969 63.3264 2.07334 88 11.68L86.1774 961H38.0362C23.51 944.351 18.9444 929.942 18.7183 893.003L4 50.7432C6.51443 38.5421 9.94265 30.2722 21.478 11.2923Z" fill="black" stroke="black" stroke-width="7" stroke-linecap="round" stroke-linejoin="round"/>
<path d="M57 892.982V50.463C65.1181 24.9869 73.7935 14.4999 88.0902 11.3878C88.0902 11.3878 89.4348 11.1138 90.126 11L255.756 75.4883C280.685 84.4794 290.477 93.7527 289.384 129.068L320 903.57C312.311 932.776 305.281 944.831 289.384 961H85.1069C64.3908 939.552 57.0852 925.265 57 892.982Z" fill="#CDE5F0" stroke="#CDE5F0" stroke-width="7" stroke-linecap="round" stroke-linejoin="round"/>
<path d="M218.214 866.797C196.462 858.482 175.461 917.876 194.343 921.574C214.029 927.234 241.204 874.718 218.214 866.797Z" fill="#AAC7D3" stroke="#AAC7D3" stroke-width="7" stroke-linecap="round" stroke-linejoin="round"/>
</svg>
