<svg width="400" height="405" viewBox="0 0 400 405" fill="none" xmlns="http://www.w3.org/2000/svg">
<rect y="134.029" width="400" height="270" rx="50" fill="#FFF9F3"/>
<ellipse cx="200" cy="175.846" rx="200" ry="175.846" fill="#FFF9F3"/>
<path opacity="0.5" d="M200 170.834L220.402 185.301L240.755 199.835L233.012 223.31L225.188 246.759L200 246.801L174.812 246.759L166.988 223.31L159.244 199.835L179.597 185.301L200 170.834Z" fill="#BFD3C1"/>
<path opacity="0.5" d="M200 129.756L240.805 157.767L281.511 185.907L266.024 231.359L250.377 276.761L200 276.841L149.623 276.761L133.976 231.359L118.489 185.907L159.195 157.767L200 129.756Z" fill="#BFD3C1"/>
<path opacity="0.5" d="M200 86L259.037 127.708L317.931 169.609L295.524 237.287L272.885 304.891L200 305.01L127.115 304.891L104.476 237.287L82.069 169.609L140.963 127.708L200 86Z" fill="#BFD3C1"/>
<circle cx="200" cy="124" r="6" fill="#326273"/>
<circle cx="258" cy="286" r="6" fill="#326273"/>
<circle cx="103" cy="176" r="6" fill="#326273"/>
<circle cx="157" cy="267" r="6" fill="#326273"/>
<circle cx="251" cy="197" r="6" fill="#326273"/>
<path d="M176.442 59.2727V68H174.861V59.2727H176.442ZM178.086 68V61.4545H179.56V62.5668H179.637C179.773 62.1918 179.999 61.8991 180.314 61.6889C180.63 61.4759 181.006 61.3693 181.444 61.3693C181.887 61.3693 182.26 61.4773 182.564 61.6932C182.871 61.9062 183.087 62.1974 183.212 62.5668H183.28C183.425 62.2031 183.669 61.9134 184.013 61.6974C184.36 61.4787 184.77 61.3693 185.245 61.3693C185.847 61.3693 186.338 61.5597 186.719 61.9403C187.1 62.321 187.29 62.8764 187.29 63.6065V68H185.743V63.8452C185.743 63.4389 185.635 63.142 185.419 62.9545C185.203 62.7642 184.939 62.669 184.627 62.669C184.255 62.669 183.963 62.7855 183.753 63.0185C183.546 63.2486 183.442 63.5483 183.442 63.9176V68H181.929V63.7812C181.929 63.4432 181.827 63.1733 181.623 62.9716C181.421 62.7699 181.157 62.669 180.83 62.669C180.608 62.669 180.407 62.7259 180.225 62.8395C180.043 62.9503 179.898 63.108 179.79 63.3125C179.682 63.5142 179.628 63.75 179.628 64.0199V68H178.086ZM188.855 70.4545V61.4545H190.372V62.5369H190.462C190.541 62.3778 190.653 62.2088 190.798 62.0298C190.943 61.848 191.139 61.6932 191.386 61.5653C191.634 61.4347 191.949 61.3693 192.332 61.3693C192.838 61.3693 193.294 61.4986 193.7 61.7571C194.109 62.0128 194.433 62.392 194.672 62.8949C194.913 63.3949 195.034 64.0085 195.034 64.7358C195.034 65.4545 194.916 66.0653 194.68 66.5682C194.445 67.071 194.124 67.4545 193.717 67.7188C193.311 67.983 192.851 68.1151 192.337 68.1151C191.962 68.1151 191.651 68.0526 191.403 67.9276C191.156 67.8026 190.957 67.652 190.807 67.4759C190.659 67.2969 190.544 67.1278 190.462 66.9688H190.398V70.4545H188.855ZM190.368 64.7273C190.368 65.1506 190.428 65.5213 190.547 65.8395C190.669 66.1577 190.844 66.4062 191.071 66.5852C191.301 66.7614 191.58 66.8494 191.906 66.8494C192.247 66.8494 192.533 66.7585 192.763 66.5767C192.993 66.392 193.166 66.1406 193.283 65.8224C193.402 65.5014 193.462 65.1364 193.462 64.7273C193.462 64.321 193.403 63.9602 193.287 63.6449C193.17 63.3295 192.997 63.0824 192.767 62.9034C192.537 62.7244 192.25 62.6349 191.906 62.6349C191.577 62.6349 191.297 62.7216 191.067 62.8949C190.837 63.0682 190.662 63.3111 190.543 63.6236C190.426 63.9361 190.368 64.304 190.368 64.7273ZM200.527 65.2472V61.4545H202.07V68H200.574V66.8366H200.506C200.358 67.2031 200.115 67.5028 199.777 67.7358C199.442 67.9687 199.028 68.0852 198.537 68.0852C198.108 68.0852 197.729 67.9901 197.399 67.7997C197.072 67.6065 196.817 67.3267 196.632 66.9602C196.447 66.5909 196.355 66.1449 196.355 65.6222V61.4545H197.898V65.3835C197.898 65.7983 198.011 66.1278 198.239 66.3722C198.466 66.6165 198.764 66.7386 199.134 66.7386C199.361 66.7386 199.581 66.6832 199.794 66.5724C200.007 66.4616 200.182 66.2969 200.318 66.0781C200.457 65.8565 200.527 65.5795 200.527 65.2472ZM205.199 59.2727V68H203.656V59.2727H205.199ZM211.958 63.1847L210.552 63.3381C210.512 63.196 210.442 63.0625 210.343 62.9375C210.246 62.8125 210.116 62.7116 209.951 62.6349C209.786 62.5582 209.585 62.5199 209.346 62.5199C209.025 62.5199 208.755 62.5895 208.536 62.7287C208.32 62.8679 208.214 63.0483 208.217 63.2699C208.214 63.4602 208.283 63.6151 208.425 63.7344C208.57 63.8537 208.809 63.9517 209.141 64.0284L210.258 64.267C210.877 64.4006 211.337 64.6122 211.638 64.902C211.942 65.1918 212.096 65.571 212.099 66.0398C212.096 66.4517 211.975 66.8153 211.737 67.1307C211.501 67.4432 211.173 67.6875 210.752 67.8636C210.332 68.0398 209.849 68.1278 209.303 68.1278C208.502 68.1278 207.857 67.9602 207.369 67.625C206.88 67.2869 206.589 66.8168 206.495 66.2145L207.999 66.0696C208.067 66.3651 208.212 66.5881 208.434 66.7386C208.656 66.8892 208.944 66.9645 209.299 66.9645C209.665 66.9645 209.96 66.8892 210.181 66.7386C210.406 66.5881 210.518 66.402 210.518 66.1804C210.518 65.9929 210.445 65.8381 210.3 65.7159C210.158 65.5937 209.937 65.5 209.636 65.4347L208.519 65.2003C207.891 65.0696 207.427 64.8494 207.126 64.5398C206.825 64.2273 206.675 63.8324 206.678 63.3551C206.675 62.9517 206.785 62.6023 207.006 62.3068C207.231 62.0085 207.542 61.7784 207.94 61.6165C208.34 61.4517 208.802 61.3693 209.325 61.3693C210.092 61.3693 210.695 61.5327 211.136 61.8594C211.579 62.1861 211.853 62.6278 211.958 63.1847ZM213.371 68V61.4545H214.913V68H213.371ZM214.146 60.5256C213.902 60.5256 213.692 60.4446 213.516 60.2827C213.339 60.1179 213.251 59.9205 213.251 59.6903C213.251 59.4574 213.339 59.2599 213.516 59.098C213.692 58.9332 213.902 58.8509 214.146 58.8509C214.393 58.8509 214.604 58.9332 214.777 59.098C214.953 59.2599 215.041 59.4574 215.041 59.6903C215.041 59.9205 214.953 60.1179 214.777 60.2827C214.604 60.4446 214.393 60.5256 214.146 60.5256ZM222.346 61.4545L220.015 68H218.311L215.98 61.4545H217.625L219.129 66.3168H219.197L220.706 61.4545H222.346ZM223.414 68V61.4545H224.956V68H223.414ZM224.189 60.5256C223.945 60.5256 223.735 60.4446 223.559 60.2827C223.382 60.1179 223.294 59.9205 223.294 59.6903C223.294 59.4574 223.382 59.2599 223.559 59.098C223.735 58.9332 223.945 58.8509 224.189 58.8509C224.436 58.8509 224.647 58.9332 224.82 59.098C224.996 59.2599 225.084 59.4574 225.084 59.6903C225.084 59.9205 224.996 60.1179 224.82 60.2827C224.647 60.4446 224.436 60.5256 224.189 60.5256ZM229.811 61.4545V62.6477H226.048V61.4545H229.811ZM226.977 59.8864H228.52V66.0312C228.52 66.2386 228.551 66.3977 228.614 66.5085C228.679 66.6165 228.764 66.6903 228.869 66.7301C228.974 66.7699 229.091 66.7898 229.219 66.7898C229.315 66.7898 229.403 66.7827 229.483 66.7685C229.565 66.7543 229.628 66.7415 229.67 66.7301L229.93 67.9361C229.848 67.9645 229.73 67.9957 229.577 68.0298C229.426 68.0639 229.241 68.0838 229.023 68.0895C228.636 68.1009 228.288 68.0426 227.979 67.9148C227.669 67.7841 227.423 67.5824 227.241 67.3097C227.063 67.0369 226.974 66.696 226.977 66.2869V59.8864ZM232.06 70.4545C231.85 70.4545 231.655 70.4375 231.476 70.4034C231.3 70.3722 231.159 70.3352 231.054 70.2926L231.412 69.0909C231.637 69.1563 231.837 69.1875 232.013 69.1847C232.189 69.1818 232.344 69.1264 232.478 69.0185C232.614 68.9134 232.729 68.7372 232.823 68.4901L232.955 68.1364L230.581 61.4545H232.218L233.726 66.3977H233.794L235.307 61.4545H236.948L234.327 68.7926C234.205 69.1392 234.043 69.4361 233.841 69.6832C233.64 69.9332 233.392 70.1236 233.1 70.2543C232.81 70.3878 232.463 70.4545 232.06 70.4545Z" fill="#326273"/>
<path d="M284.617 323.672C284.578 323.3 284.41 323.01 284.115 322.803C283.822 322.595 283.441 322.491 282.972 322.491C282.643 322.491 282.36 322.541 282.124 322.641C281.889 322.74 281.708 322.875 281.583 323.045C281.458 323.216 281.394 323.411 281.392 323.629C281.392 323.811 281.433 323.969 281.515 324.102C281.6 324.236 281.715 324.349 281.86 324.443C282.005 324.534 282.166 324.611 282.342 324.673C282.518 324.736 282.695 324.788 282.874 324.831L283.693 325.036C284.022 325.112 284.339 325.216 284.643 325.347C284.95 325.477 285.224 325.642 285.465 325.841C285.71 326.04 285.903 326.28 286.045 326.561C286.187 326.842 286.258 327.172 286.258 327.55C286.258 328.061 286.127 328.511 285.866 328.901C285.605 329.287 285.227 329.589 284.732 329.808C284.241 330.024 283.646 330.132 282.947 330.132C282.268 330.132 281.678 330.027 281.178 329.817C280.681 329.607 280.292 329.3 280.011 328.896C279.732 328.493 279.582 328.001 279.559 327.422H281.115C281.137 327.726 281.231 327.979 281.396 328.18C281.561 328.382 281.775 328.533 282.039 328.632C282.306 328.732 282.605 328.781 282.934 328.781C283.278 328.781 283.579 328.73 283.838 328.628C284.099 328.523 284.303 328.378 284.451 328.193C284.599 328.006 284.674 327.787 284.677 327.537C284.674 327.31 284.607 327.122 284.477 326.974C284.346 326.824 284.163 326.699 283.927 326.599C283.694 326.497 283.421 326.406 283.109 326.327L282.116 326.071C281.397 325.886 280.829 325.607 280.411 325.232C279.997 324.854 279.789 324.352 279.789 323.727C279.789 323.213 279.928 322.763 280.207 322.376C280.488 321.99 280.87 321.69 281.353 321.477C281.836 321.261 282.383 321.153 282.994 321.153C283.613 321.153 284.156 321.261 284.622 321.477C285.09 321.69 285.458 321.987 285.725 322.368C285.992 322.746 286.13 323.18 286.139 323.672H284.617ZM290.497 330.128C289.841 330.128 289.274 329.991 288.797 329.719C288.322 329.443 287.957 329.054 287.702 328.551C287.446 328.045 287.318 327.45 287.318 326.766C287.318 326.092 287.446 325.501 287.702 324.993C287.96 324.482 288.321 324.084 288.784 323.8C289.247 323.513 289.791 323.369 290.416 323.369C290.819 323.369 291.2 323.435 291.558 323.565C291.919 323.693 292.237 323.892 292.513 324.162C292.791 324.432 293.01 324.776 293.169 325.193C293.328 325.608 293.407 326.102 293.407 326.676V327.149H288.042V326.109H291.929C291.926 325.814 291.862 325.551 291.737 325.321C291.612 325.088 291.437 324.905 291.213 324.771C290.991 324.638 290.733 324.571 290.437 324.571C290.122 324.571 289.845 324.648 289.606 324.801C289.368 324.952 289.182 325.151 289.048 325.398C288.917 325.642 288.851 325.911 288.848 326.203V327.111C288.848 327.491 288.917 327.818 289.057 328.091C289.196 328.361 289.39 328.568 289.64 328.713C289.89 328.855 290.183 328.926 290.518 328.926C290.743 328.926 290.946 328.895 291.128 328.832C291.309 328.767 291.467 328.672 291.601 328.547C291.734 328.422 291.835 328.267 291.903 328.082L293.344 328.244C293.253 328.625 293.079 328.957 292.824 329.241C292.571 329.523 292.247 329.741 291.852 329.898C291.457 330.051 291.006 330.128 290.497 330.128ZM296.255 326.165V330H294.713V323.455H296.187V324.567H296.264C296.414 324.2 296.654 323.909 296.984 323.693C297.316 323.477 297.727 323.369 298.215 323.369C298.667 323.369 299.061 323.466 299.396 323.659C299.734 323.852 299.995 324.132 300.18 324.499C300.367 324.865 300.46 325.31 300.457 325.832V330H298.914V326.071C298.914 325.634 298.801 325.291 298.573 325.044C298.349 324.797 298.038 324.673 297.64 324.673C297.37 324.673 297.13 324.733 296.92 324.852C296.713 324.969 296.549 325.138 296.43 325.359C296.313 325.581 296.255 325.849 296.255 326.165ZM307.198 325.185L305.792 325.338C305.752 325.196 305.683 325.062 305.583 324.938C305.487 324.812 305.356 324.712 305.191 324.635C305.026 324.558 304.825 324.52 304.586 324.52C304.265 324.52 303.995 324.589 303.776 324.729C303.561 324.868 303.454 325.048 303.457 325.27C303.454 325.46 303.524 325.615 303.666 325.734C303.811 325.854 304.049 325.952 304.382 326.028L305.498 326.267C306.117 326.401 306.578 326.612 306.879 326.902C307.183 327.192 307.336 327.571 307.339 328.04C307.336 328.452 307.215 328.815 306.977 329.131C306.741 329.443 306.413 329.687 305.992 329.864C305.572 330.04 305.089 330.128 304.544 330.128C303.742 330.128 303.097 329.96 302.609 329.625C302.12 329.287 301.829 328.817 301.735 328.214L303.24 328.07C303.308 328.365 303.453 328.588 303.674 328.739C303.896 328.889 304.184 328.964 304.539 328.964C304.906 328.964 305.2 328.889 305.421 328.739C305.646 328.588 305.758 328.402 305.758 328.18C305.758 327.993 305.686 327.838 305.541 327.716C305.399 327.594 305.177 327.5 304.876 327.435L303.759 327.2C303.132 327.07 302.667 326.849 302.366 326.54C302.065 326.227 301.916 325.832 301.919 325.355C301.916 324.952 302.025 324.602 302.247 324.307C302.471 324.009 302.782 323.778 303.18 323.616C303.58 323.452 304.042 323.369 304.565 323.369C305.332 323.369 305.936 323.533 306.376 323.859C306.819 324.186 307.093 324.628 307.198 325.185ZM310.494 330.132C310.08 330.132 309.706 330.058 309.374 329.911C309.044 329.76 308.783 329.538 308.59 329.246C308.399 328.953 308.304 328.592 308.304 328.163C308.304 327.794 308.372 327.489 308.509 327.247C308.645 327.006 308.831 326.812 309.067 326.668C309.303 326.523 309.568 326.413 309.864 326.339C310.162 326.263 310.47 326.207 310.789 326.173C311.172 326.134 311.483 326.098 311.722 326.067C311.96 326.033 312.134 325.982 312.242 325.913C312.352 325.842 312.408 325.733 312.408 325.585V325.56C312.408 325.239 312.313 324.99 312.122 324.814C311.932 324.638 311.658 324.55 311.3 324.55C310.922 324.55 310.622 324.632 310.401 324.797C310.182 324.962 310.034 325.156 309.958 325.381L308.517 325.176C308.631 324.778 308.818 324.446 309.08 324.179C309.341 323.909 309.661 323.707 310.039 323.574C310.416 323.438 310.834 323.369 311.291 323.369C311.607 323.369 311.921 323.406 312.233 323.48C312.546 323.554 312.831 323.676 313.09 323.847C313.348 324.014 313.556 324.243 313.712 324.533C313.871 324.822 313.95 325.185 313.95 325.619V330H312.468V329.101H312.416C312.323 329.283 312.191 329.453 312.02 329.612C311.852 329.768 311.641 329.895 311.385 329.991C311.132 330.085 310.835 330.132 310.494 330.132ZM310.895 328.999C311.205 328.999 311.473 328.937 311.7 328.815C311.928 328.69 312.102 328.526 312.225 328.321C312.35 328.116 312.412 327.893 312.412 327.652V326.881C312.364 326.92 312.281 326.957 312.165 326.991C312.051 327.026 311.923 327.055 311.781 327.081C311.639 327.107 311.499 327.129 311.36 327.149C311.22 327.169 311.1 327.186 310.997 327.2C310.767 327.232 310.561 327.283 310.379 327.354C310.198 327.425 310.054 327.524 309.949 327.652C309.844 327.777 309.791 327.939 309.791 328.138C309.791 328.422 309.895 328.636 310.102 328.781C310.31 328.926 310.574 328.999 310.895 328.999ZM318.77 323.455V324.648H315.007V323.455H318.77ZM315.936 321.886H317.479V328.031C317.479 328.239 317.51 328.398 317.573 328.509C317.638 328.616 317.723 328.69 317.828 328.73C317.933 328.77 318.05 328.79 318.178 328.79C318.274 328.79 318.362 328.783 318.442 328.768C318.524 328.754 318.587 328.741 318.629 328.73L318.889 329.936C318.807 329.964 318.689 329.996 318.536 330.03C318.385 330.064 318.2 330.084 317.982 330.089C317.595 330.101 317.247 330.043 316.938 329.915C316.628 329.784 316.382 329.582 316.2 329.31C316.021 329.037 315.933 328.696 315.936 328.287V321.886ZM320.06 330V323.455H321.603V330H320.06ZM320.836 322.526C320.591 322.526 320.381 322.445 320.205 322.283C320.029 322.118 319.941 321.92 319.941 321.69C319.941 321.457 320.029 321.26 320.205 321.098C320.381 320.933 320.591 320.851 320.836 320.851C321.083 320.851 321.293 320.933 321.466 321.098C321.643 321.26 321.731 321.457 321.731 321.69C321.731 321.92 321.643 322.118 321.466 322.283C321.293 322.445 321.083 322.526 320.836 322.526ZM326.044 330.128C325.405 330.128 324.851 329.987 324.382 329.706C323.914 329.425 323.55 329.031 323.291 328.526C323.036 328.02 322.908 327.429 322.908 326.753C322.908 326.077 323.036 325.484 323.291 324.976C323.55 324.467 323.914 324.072 324.382 323.791C324.851 323.51 325.405 323.369 326.044 323.369C326.683 323.369 327.237 323.51 327.706 323.791C328.175 324.072 328.537 324.467 328.793 324.976C329.051 325.484 329.181 326.077 329.181 326.753C329.181 327.429 329.051 328.02 328.793 328.526C328.537 329.031 328.175 329.425 327.706 329.706C327.237 329.987 326.683 330.128 326.044 330.128ZM326.053 328.892C326.399 328.892 326.689 328.797 326.922 328.607C327.155 328.413 327.328 328.155 327.442 327.831C327.558 327.507 327.617 327.146 327.617 326.749C327.617 326.348 327.558 325.986 327.442 325.662C327.328 325.335 327.155 325.075 326.922 324.882C326.689 324.689 326.399 324.592 326.053 324.592C325.698 324.592 325.402 324.689 325.166 324.882C324.933 325.075 324.759 325.335 324.642 325.662C324.529 325.986 324.472 326.348 324.472 326.749C324.472 327.146 324.529 327.507 324.642 327.831C324.759 328.155 324.933 328.413 325.166 328.607C325.402 328.797 325.698 328.892 326.053 328.892ZM332.032 326.165V330H330.49V323.455H331.964V324.567H332.041C332.192 324.2 332.432 323.909 332.761 323.693C333.094 323.477 333.504 323.369 333.993 323.369C334.444 323.369 334.838 323.466 335.173 323.659C335.511 323.852 335.773 324.132 335.957 324.499C336.145 324.865 336.237 325.31 336.234 325.832V330H334.692V326.071C334.692 325.634 334.578 325.291 334.351 325.044C334.126 324.797 333.815 324.673 333.417 324.673C333.148 324.673 332.907 324.733 332.697 324.852C332.49 324.969 332.327 325.138 332.207 325.359C332.091 325.581 332.032 325.849 332.032 326.165ZM291.707 338.672C291.667 338.3 291.5 338.01 291.204 337.803C290.912 337.595 290.531 337.491 290.062 337.491C289.733 337.491 289.45 337.541 289.214 337.641C288.979 337.74 288.798 337.875 288.673 338.045C288.548 338.216 288.484 338.411 288.481 338.629C288.481 338.811 288.523 338.969 288.605 339.102C288.69 339.236 288.805 339.349 288.95 339.443C289.095 339.534 289.256 339.611 289.432 339.673C289.608 339.736 289.785 339.788 289.964 339.831L290.782 340.036C291.112 340.112 291.429 340.216 291.733 340.347C292.04 340.477 292.314 340.642 292.555 340.841C292.8 341.04 292.993 341.28 293.135 341.561C293.277 341.842 293.348 342.172 293.348 342.55C293.348 343.061 293.217 343.511 292.956 343.901C292.694 344.287 292.317 344.589 291.822 344.808C291.331 345.024 290.736 345.132 290.037 345.132C289.358 345.132 288.768 345.027 288.268 344.817C287.771 344.607 287.382 344.3 287.101 343.896C286.822 343.493 286.672 343.001 286.649 342.422H288.204C288.227 342.726 288.321 342.979 288.486 343.18C288.65 343.382 288.865 343.533 289.129 343.632C289.396 343.732 289.694 343.781 290.024 343.781C290.368 343.781 290.669 343.73 290.927 343.628C291.189 343.523 291.393 343.378 291.541 343.193C291.689 343.006 291.764 342.787 291.767 342.537C291.764 342.31 291.697 342.122 291.567 341.974C291.436 341.824 291.253 341.699 291.017 341.599C290.784 341.497 290.511 341.406 290.199 341.327L289.206 341.071C288.487 340.886 287.919 340.607 287.501 340.232C287.086 339.854 286.879 339.352 286.879 338.727C286.879 338.213 287.018 337.763 287.297 337.376C287.578 336.99 287.96 336.69 288.443 336.477C288.926 336.261 289.473 336.153 290.084 336.153C290.703 336.153 291.246 336.261 291.711 336.477C292.18 336.69 292.548 336.987 292.815 337.368C293.082 337.746 293.22 338.18 293.229 338.672H291.707ZM297.587 345.128C296.931 345.128 296.364 344.991 295.887 344.719C295.412 344.443 295.047 344.054 294.791 343.551C294.536 343.045 294.408 342.45 294.408 341.766C294.408 341.092 294.536 340.501 294.791 339.993C295.05 339.482 295.411 339.084 295.874 338.8C296.337 338.513 296.881 338.369 297.506 338.369C297.909 338.369 298.29 338.435 298.648 338.565C299.009 338.693 299.327 338.892 299.602 339.162C299.881 339.432 300.1 339.776 300.259 340.193C300.418 340.608 300.497 341.102 300.497 341.676V342.149H295.132V341.109H299.019C299.016 340.814 298.952 340.551 298.827 340.321C298.702 340.088 298.527 339.905 298.303 339.771C298.081 339.638 297.823 339.571 297.527 339.571C297.212 339.571 296.935 339.648 296.696 339.801C296.458 339.952 296.271 340.151 296.138 340.398C296.007 340.642 295.941 340.911 295.938 341.203V342.111C295.938 342.491 296.007 342.818 296.146 343.091C296.286 343.361 296.48 343.568 296.73 343.713C296.98 343.855 297.273 343.926 297.608 343.926C297.833 343.926 298.036 343.895 298.218 343.832C298.399 343.767 298.557 343.672 298.691 343.547C298.824 343.422 298.925 343.267 298.993 343.082L300.433 343.244C300.343 343.625 300.169 343.957 299.914 344.241C299.661 344.523 299.337 344.741 298.942 344.898C298.547 345.051 298.095 345.128 297.587 345.128ZM304.7 345.128C304.044 345.128 303.477 344.991 303 344.719C302.525 344.443 302.16 344.054 301.905 343.551C301.649 343.045 301.521 342.45 301.521 341.766C301.521 341.092 301.649 340.501 301.905 339.993C302.163 339.482 302.524 339.084 302.987 338.8C303.45 338.513 303.994 338.369 304.619 338.369C305.023 338.369 305.403 338.435 305.761 338.565C306.122 338.693 306.44 338.892 306.716 339.162C306.994 339.432 307.213 339.776 307.372 340.193C307.531 340.608 307.611 341.102 307.611 341.676V342.149H302.246V341.109H306.132C306.129 340.814 306.065 340.551 305.94 340.321C305.815 340.088 305.64 339.905 305.416 339.771C305.194 339.638 304.936 339.571 304.64 339.571C304.325 339.571 304.048 339.648 303.809 339.801C303.571 339.952 303.385 340.151 303.251 340.398C303.121 340.642 303.054 340.911 303.051 341.203V342.111C303.051 342.491 303.121 342.818 303.26 343.091C303.399 343.361 303.594 343.568 303.844 343.713C304.094 343.855 304.386 343.926 304.721 343.926C304.946 343.926 305.149 343.895 305.331 343.832C305.513 343.767 305.67 343.672 305.804 343.547C305.937 343.422 306.038 343.267 306.106 343.082L307.547 343.244C307.456 343.625 307.282 343.957 307.027 344.241C306.774 344.523 306.45 344.741 306.055 344.898C305.66 345.051 305.209 345.128 304.7 345.128ZM310.322 342.946L310.318 341.084H310.565L312.917 338.455H314.72L311.826 341.676H311.507L310.322 342.946ZM308.916 345V336.273H310.458V345H308.916ZM313.024 345L310.893 342.021L311.933 340.935L314.869 345H313.024ZM315.748 345V338.455H317.29V345H315.748ZM316.523 337.526C316.279 337.526 316.069 337.445 315.893 337.283C315.716 337.118 315.628 336.92 315.628 336.69C315.628 336.457 315.716 336.26 315.893 336.098C316.069 335.933 316.279 335.851 316.523 335.851C316.77 335.851 316.981 335.933 317.154 336.098C317.33 336.26 317.418 336.457 317.418 336.69C317.418 336.92 317.33 337.118 317.154 337.283C316.981 337.445 316.77 337.526 316.523 337.526ZM320.419 341.165V345H318.877V338.455H320.351V339.567H320.428C320.578 339.2 320.818 338.909 321.148 338.693C321.48 338.477 321.891 338.369 322.379 338.369C322.831 338.369 323.225 338.466 323.56 338.659C323.898 338.852 324.159 339.132 324.344 339.499C324.531 339.865 324.624 340.31 324.621 340.832V345H323.078V341.071C323.078 340.634 322.965 340.291 322.737 340.044C322.513 339.797 322.202 339.673 321.804 339.673C321.534 339.673 321.294 339.733 321.084 339.852C320.877 339.969 320.713 340.138 320.594 340.359C320.477 340.581 320.419 340.849 320.419 341.165ZM329.036 347.591C328.482 347.591 328.006 347.516 327.608 347.365C327.21 347.217 326.891 347.018 326.649 346.768C326.408 346.518 326.24 346.241 326.146 345.938L327.536 345.601C327.598 345.729 327.689 345.855 327.808 345.98C327.928 346.108 328.088 346.213 328.29 346.295C328.494 346.381 328.752 346.423 329.061 346.423C329.499 346.423 329.861 346.317 330.148 346.104C330.435 345.893 330.578 345.547 330.578 345.064V343.824H330.502C330.422 343.983 330.306 344.146 330.152 344.314C330.002 344.482 329.801 344.622 329.551 344.736C329.304 344.849 328.993 344.906 328.618 344.906C328.115 344.906 327.659 344.788 327.25 344.553C326.844 344.314 326.52 343.959 326.279 343.487C326.04 343.013 325.921 342.419 325.921 341.706C325.921 340.987 326.04 340.381 326.279 339.886C326.52 339.389 326.845 339.013 327.254 338.757C327.664 338.499 328.119 338.369 328.622 338.369C329.006 338.369 329.321 338.435 329.568 338.565C329.818 338.693 330.017 338.848 330.165 339.03C330.313 339.209 330.425 339.378 330.502 339.537H330.587V338.455H332.108V345.107C332.108 345.666 331.975 346.129 331.708 346.496C331.441 346.862 331.075 347.136 330.612 347.318C330.149 347.5 329.624 347.591 329.036 347.591ZM329.048 343.696C329.375 343.696 329.654 343.616 329.884 343.457C330.114 343.298 330.289 343.07 330.408 342.771C330.527 342.473 330.587 342.115 330.587 341.697C330.587 341.286 330.527 340.925 330.408 340.615C330.291 340.305 330.118 340.065 329.888 339.895C329.661 339.722 329.381 339.635 329.048 339.635C328.705 339.635 328.418 339.724 328.188 339.903C327.958 340.082 327.784 340.328 327.668 340.641C327.551 340.95 327.493 341.303 327.493 341.697C327.493 342.098 327.551 342.449 327.668 342.75C327.787 343.048 327.962 343.281 328.192 343.449C328.425 343.614 328.71 343.696 329.048 343.696Z" fill="#326273"/>
<path d="M21.8182 152H18.8608V143.273H21.8778C22.7443 143.273 23.4886 143.447 24.1108 143.797C24.7358 144.143 25.2159 144.642 25.5511 145.293C25.8864 145.943 26.054 146.722 26.054 147.628C26.054 148.537 25.8849 149.318 25.5469 149.972C25.2116 150.625 24.7273 151.126 24.0938 151.476C23.4631 151.825 22.7045 152 21.8182 152ZM20.4418 150.632H21.7415C22.3494 150.632 22.8565 150.521 23.2628 150.3C23.669 150.075 23.9744 149.741 24.179 149.298C24.3835 148.852 24.4858 148.295 24.4858 147.628C24.4858 146.96 24.3835 146.406 24.179 145.966C23.9744 145.523 23.6719 145.192 23.2713 144.973C22.8736 144.751 22.3793 144.641 21.7884 144.641H20.4418V150.632ZM30.3857 152.128C29.7294 152.128 29.1626 151.991 28.6854 151.719C28.2109 151.443 27.8459 151.054 27.5902 150.551C27.3345 150.045 27.2067 149.45 27.2067 148.766C27.2067 148.092 27.3345 147.501 27.5902 146.993C27.8487 146.482 28.2095 146.084 28.6726 145.8C29.1357 145.513 29.6797 145.369 30.3047 145.369C30.7081 145.369 31.0888 145.435 31.4467 145.565C31.8075 145.693 32.1257 145.892 32.4013 146.162C32.6797 146.432 32.8984 146.776 33.0575 147.193C33.2166 147.608 33.2962 148.102 33.2962 148.676V149.149H27.9311V148.109H31.8175C31.8146 147.814 31.7507 147.551 31.6257 147.321C31.5007 147.088 31.326 146.905 31.1016 146.771C30.88 146.638 30.6214 146.571 30.326 146.571C30.0107 146.571 29.7337 146.648 29.495 146.801C29.2564 146.952 29.0703 147.151 28.9368 147.398C28.8061 147.642 28.7393 147.911 28.7365 148.203V149.111C28.7365 149.491 28.8061 149.818 28.9453 150.091C29.0845 150.361 29.2791 150.568 29.5291 150.713C29.7791 150.855 30.0717 150.926 30.407 150.926C30.6314 150.926 30.8345 150.895 31.0163 150.832C31.1982 150.767 31.3558 150.672 31.4893 150.547C31.6229 150.422 31.7237 150.267 31.7919 150.082L33.2322 150.244C33.1413 150.625 32.968 150.957 32.7124 151.241C32.4595 151.523 32.1357 151.741 31.7408 151.898C31.3459 152.051 30.8942 152.128 30.3857 152.128ZM34.6012 154.455V145.455H36.1183V146.537H36.2077C36.2873 146.378 36.3995 146.209 36.5444 146.03C36.6893 145.848 36.8853 145.693 37.1325 145.565C37.3796 145.435 37.695 145.369 38.0785 145.369C38.5842 145.369 39.0401 145.499 39.4464 145.757C39.8555 146.013 40.1793 146.392 40.418 146.895C40.6594 147.395 40.7802 148.009 40.7802 148.736C40.7802 149.455 40.6623 150.065 40.4265 150.568C40.1907 151.071 39.8697 151.455 39.4634 151.719C39.0572 151.983 38.5969 152.115 38.0827 152.115C37.7077 152.115 37.3967 152.053 37.1495 151.928C36.9023 151.803 36.7035 151.652 36.5529 151.476C36.4052 151.297 36.2901 151.128 36.2077 150.969H36.1438V154.455H34.6012ZM36.114 148.727C36.114 149.151 36.1737 149.521 36.293 149.839C36.4151 150.158 36.5898 150.406 36.8171 150.585C37.0472 150.761 37.3256 150.849 37.6523 150.849C37.9933 150.849 38.2788 150.759 38.5089 150.577C38.739 150.392 38.9123 150.141 39.0288 149.822C39.1481 149.501 39.2077 149.136 39.2077 148.727C39.2077 148.321 39.1495 147.96 39.033 147.645C38.9165 147.33 38.7433 147.082 38.5131 146.903C38.283 146.724 37.9961 146.635 37.6523 146.635C37.3228 146.635 37.043 146.722 36.8129 146.895C36.5827 147.068 36.408 147.311 36.2887 147.624C36.1722 147.936 36.114 148.304 36.114 148.727ZM42.1012 152V145.455H43.5969V146.545H43.6651C43.7844 146.168 43.989 145.876 44.2788 145.672C44.5714 145.464 44.9052 145.361 45.2802 145.361C45.3654 145.361 45.4606 145.365 45.5657 145.374C45.6737 145.379 45.7631 145.389 45.8342 145.403V146.822C45.7688 146.8 45.6651 146.78 45.5231 146.763C45.3839 146.743 45.2489 146.733 45.1183 146.733C44.837 146.733 44.5842 146.794 44.3597 146.916C44.1381 147.036 43.9634 147.202 43.8356 147.415C43.7077 147.628 43.6438 147.874 43.6438 148.152V152H42.1012ZM49.4872 152.128C48.831 152.128 48.2642 151.991 47.7869 151.719C47.3125 151.443 46.9474 151.054 46.6918 150.551C46.4361 150.045 46.3082 149.45 46.3082 148.766C46.3082 148.092 46.4361 147.501 46.6918 146.993C46.9503 146.482 47.3111 146.084 47.7741 145.8C48.2372 145.513 48.7812 145.369 49.4062 145.369C49.8097 145.369 50.1903 145.435 50.5483 145.565C50.9091 145.693 51.2273 145.892 51.5028 146.162C51.7813 146.432 52 146.776 52.1591 147.193C52.3182 147.608 52.3977 148.102 52.3977 148.676V149.149H47.0327V148.109H50.919C50.9162 147.814 50.8523 147.551 50.7273 147.321C50.6023 147.088 50.4276 146.905 50.2031 146.771C49.9815 146.638 49.723 146.571 49.4276 146.571C49.1122 146.571 48.8352 146.648 48.5966 146.801C48.358 146.952 48.1719 147.151 48.0384 147.398C47.9077 147.642 47.8409 147.911 47.8381 148.203V149.111C47.8381 149.491 47.9077 149.818 48.0469 150.091C48.1861 150.361 48.3807 150.568 48.6307 150.713C48.8807 150.855 49.1733 150.926 49.5085 150.926C49.733 150.926 49.9361 150.895 50.1179 150.832C50.2997 150.767 50.4574 150.672 50.5909 150.547C50.7244 150.422 50.8253 150.267 50.8935 150.082L52.3338 150.244C52.2429 150.625 52.0696 150.957 51.8139 151.241C51.5611 151.523 51.2372 151.741 50.8423 151.898C50.4474 152.051 49.9957 152.128 49.4872 152.128ZM58.8761 147.185L57.4698 147.338C57.43 147.196 57.3604 147.062 57.261 146.938C57.1644 146.812 57.0337 146.712 56.869 146.635C56.7042 146.558 56.5025 146.52 56.2638 146.52C55.9428 146.52 55.6729 146.589 55.4542 146.729C55.2383 146.868 55.1317 147.048 55.1346 147.27C55.1317 147.46 55.2013 147.615 55.3434 147.734C55.4883 147.854 55.7269 147.952 56.0593 148.028L57.1758 148.267C57.7951 148.401 58.2553 148.612 58.5565 148.902C58.8604 149.192 59.0138 149.571 59.0167 150.04C59.0138 150.452 58.8931 150.815 58.6545 151.131C58.4187 151.443 58.0906 151.687 57.6701 151.864C57.2496 152.04 56.7667 152.128 56.2212 152.128C55.4201 152.128 54.7752 151.96 54.2866 151.625C53.7979 151.287 53.5067 150.817 53.413 150.214L54.9173 150.07C54.9854 150.365 55.1303 150.588 55.3519 150.739C55.5735 150.889 55.8619 150.964 56.217 150.964C56.5835 150.964 56.8775 150.889 57.0991 150.739C57.3235 150.588 57.4357 150.402 57.4357 150.18C57.4357 149.993 57.3633 149.838 57.2184 149.716C57.0763 149.594 56.8548 149.5 56.5536 149.435L55.4371 149.2C54.8093 149.07 54.3448 148.849 54.0437 148.54C53.7425 148.227 53.5934 147.832 53.5962 147.355C53.5934 146.952 53.7028 146.602 53.9244 146.307C54.1488 146.009 54.4599 145.778 54.8576 145.616C55.2582 145.452 55.7198 145.369 56.2425 145.369C57.0096 145.369 57.6133 145.533 58.0536 145.859C58.4968 146.186 58.771 146.628 58.8761 147.185ZM65.462 147.185L64.0558 147.338C64.016 147.196 63.9464 147.062 63.8469 146.938C63.7504 146.812 63.6197 146.712 63.4549 146.635C63.2901 146.558 63.0884 146.52 62.8498 146.52C62.5288 146.52 62.2589 146.589 62.0401 146.729C61.8242 146.868 61.7177 147.048 61.7205 147.27C61.7177 147.46 61.7873 147.615 61.9293 147.734C62.0742 147.854 62.3129 147.952 62.6452 148.028L63.7617 148.267C64.381 148.401 64.8413 148.612 65.1424 148.902C65.4464 149.192 65.5998 149.571 65.6026 150.04C65.5998 150.452 65.479 150.815 65.2404 151.131C65.0046 151.443 64.6765 151.687 64.256 151.864C63.8356 152.04 63.3526 152.128 62.8072 152.128C62.006 152.128 61.3612 151.96 60.8725 151.625C60.3839 151.287 60.0927 150.817 59.9989 150.214L61.5032 150.07C61.5714 150.365 61.7163 150.588 61.9379 150.739C62.1594 150.889 62.4478 150.964 62.8029 150.964C63.1694 150.964 63.4634 150.889 63.685 150.739C63.9094 150.588 64.0217 150.402 64.0217 150.18C64.0217 149.993 63.9492 149.838 63.8043 149.716C63.6623 149.594 63.4407 149.5 63.1396 149.435L62.0231 149.2C61.3952 149.07 60.9308 148.849 60.6296 148.54C60.3285 148.227 60.1793 147.832 60.1822 147.355C60.1793 146.952 60.2887 146.602 60.5103 146.307C60.7347 146.009 61.0458 145.778 61.4435 145.616C61.8441 145.452 62.3058 145.369 62.8285 145.369C63.5955 145.369 64.1992 145.533 64.6396 145.859C65.0827 146.186 65.3569 146.628 65.462 147.185ZM66.8746 152V145.455H68.4173V152H66.8746ZM67.6502 144.526C67.4059 144.526 67.1957 144.445 67.0195 144.283C66.8434 144.118 66.7553 143.92 66.7553 143.69C66.7553 143.457 66.8434 143.26 67.0195 143.098C67.1957 142.933 67.4059 142.851 67.6502 142.851C67.8974 142.851 68.1076 142.933 68.2809 143.098C68.457 143.26 68.5451 143.457 68.5451 143.69C68.5451 143.92 68.457 144.118 68.2809 144.283C68.1076 144.445 67.8974 144.526 67.6502 144.526ZM72.8587 152.128C72.2195 152.128 71.6655 151.987 71.1967 151.706C70.728 151.425 70.3643 151.031 70.1058 150.526C69.8501 150.02 69.7223 149.429 69.7223 148.753C69.7223 148.077 69.8501 147.484 70.1058 146.976C70.3643 146.467 70.728 146.072 71.1967 145.791C71.6655 145.51 72.2195 145.369 72.8587 145.369C73.4979 145.369 74.0518 145.51 74.5206 145.791C74.9893 146.072 75.3516 146.467 75.6072 146.976C75.8658 147.484 75.995 148.077 75.995 148.753C75.995 149.429 75.8658 150.02 75.6072 150.526C75.3516 151.031 74.9893 151.425 74.5206 151.706C74.0518 151.987 73.4979 152.128 72.8587 152.128ZM72.8672 150.892C73.2138 150.892 73.5036 150.797 73.7365 150.607C73.9695 150.413 74.1428 150.155 74.2564 149.831C74.3729 149.507 74.4311 149.146 74.4311 148.749C74.4311 148.348 74.3729 147.986 74.2564 147.662C74.1428 147.335 73.9695 147.075 73.7365 146.882C73.5036 146.689 73.2138 146.592 72.8672 146.592C72.5121 146.592 72.2166 146.689 71.9808 146.882C71.7479 147.075 71.5732 147.335 71.4567 147.662C71.343 147.986 71.2862 148.348 71.2862 148.749C71.2862 149.146 71.343 149.507 71.4567 149.831C71.5732 150.155 71.7479 150.413 71.9808 150.607C72.2166 150.797 72.5121 150.892 72.8672 150.892ZM78.8469 148.165V152H77.3043V145.455H78.7788V146.567H78.8555C79.006 146.2 79.2461 145.909 79.5756 145.693C79.908 145.477 80.3185 145.369 80.8072 145.369C81.2589 145.369 81.6523 145.466 81.9876 145.659C82.3256 145.852 82.587 146.132 82.7717 146.499C82.9592 146.865 83.0515 147.31 83.0487 147.832V152H81.506V148.071C81.506 147.634 81.3924 147.291 81.1651 147.044C80.9407 146.797 80.6296 146.673 80.2319 146.673C79.962 146.673 79.7219 146.733 79.5117 146.852C79.3043 146.969 79.141 147.138 79.0217 147.359C78.9052 147.581 78.8469 147.849 78.8469 148.165Z" fill="#326273"/>
<path d="M59.0327 324.273V333H57.6264L53.5142 327.055H53.4418V333H51.8608V324.273H53.2756L57.3835 330.222H57.4602V324.273H59.0327ZM63.5423 333.128C62.9031 333.128 62.3491 332.987 61.8803 332.706C61.4116 332.425 61.0479 332.031 60.7894 331.526C60.5337 331.02 60.4059 330.429 60.4059 329.753C60.4059 329.077 60.5337 328.484 60.7894 327.976C61.0479 327.467 61.4116 327.072 61.8803 326.791C62.3491 326.51 62.9031 326.369 63.5423 326.369C64.1815 326.369 64.7354 326.51 65.2042 326.791C65.6729 327.072 66.0352 327.467 66.2908 327.976C66.5494 328.484 66.6786 329.077 66.6786 329.753C66.6786 330.429 66.5494 331.02 66.2908 331.526C66.0352 332.031 65.6729 332.425 65.2042 332.706C64.7354 332.987 64.1815 333.128 63.5423 333.128ZM63.5508 331.892C63.8974 331.892 64.1871 331.797 64.4201 331.607C64.6531 331.413 64.8263 331.155 64.94 330.831C65.0565 330.507 65.1147 330.146 65.1147 329.749C65.1147 329.348 65.0565 328.986 64.94 328.662C64.8263 328.335 64.6531 328.075 64.4201 327.882C64.1871 327.689 63.8974 327.592 63.5508 327.592C63.1957 327.592 62.9002 327.689 62.6644 327.882C62.4315 328.075 62.2567 328.335 62.1403 328.662C62.0266 328.986 61.9698 329.348 61.9698 329.749C61.9698 330.146 62.0266 330.507 62.1403 330.831C62.2567 331.155 62.4315 331.413 62.6644 331.607C62.9002 331.797 63.1957 331.892 63.5508 331.892ZM69.5305 329.165V333H67.9879V326.455H69.4624V327.567H69.5391C69.6896 327.2 69.9297 326.909 70.2592 326.693C70.5916 326.477 71.0021 326.369 71.4908 326.369C71.9425 326.369 72.3359 326.466 72.6712 326.659C73.0092 326.852 73.2706 327.132 73.4553 327.499C73.6428 327.865 73.7351 328.31 73.7322 328.832V333H72.1896V329.071C72.1896 328.634 72.076 328.291 71.8487 328.044C71.6243 327.797 71.3132 327.673 70.9155 327.673C70.6456 327.673 70.4055 327.733 70.1953 327.852C69.9879 327.969 69.8246 328.138 69.7053 328.359C69.5888 328.581 69.5305 328.849 69.5305 329.165ZM78.1555 333.128C77.5021 333.128 76.9411 332.984 76.4723 332.697C76.0064 332.411 75.647 332.014 75.3942 331.509C75.1442 331 75.0192 330.415 75.0192 329.753C75.0192 329.088 75.147 328.501 75.4027 327.993C75.6584 327.482 76.0192 327.084 76.4851 326.8C76.9538 326.513 77.5078 326.369 78.147 326.369C78.6783 326.369 79.1484 326.467 79.5575 326.663C79.9695 326.857 80.2976 327.131 80.5419 327.486C80.7862 327.838 80.9254 328.25 80.9595 328.722H79.4851C79.4254 328.406 79.2834 328.143 79.0589 327.933C78.8374 327.72 78.5405 327.614 78.1683 327.614C77.853 327.614 77.576 327.699 77.3374 327.869C77.0987 328.037 76.9126 328.278 76.7791 328.594C76.6484 328.909 76.5831 329.287 76.5831 329.727C76.5831 330.173 76.6484 330.557 76.7791 330.878C76.9098 331.196 77.093 331.442 77.3288 331.615C77.5675 331.786 77.8473 331.871 78.1683 331.871C78.3956 331.871 78.5987 331.828 78.7777 331.743C78.9595 331.655 79.1115 331.528 79.2337 331.364C79.3558 331.199 79.4396 330.999 79.4851 330.763H80.9595C80.9226 331.226 80.7862 331.636 80.5504 331.994C80.3146 332.349 79.9936 332.628 79.5874 332.83C79.1811 333.028 78.7038 333.128 78.1555 333.128ZM85.0813 333.128C84.4421 333.128 83.8881 332.987 83.4194 332.706C82.9506 332.425 82.587 332.031 82.3285 331.526C82.0728 331.02 81.945 330.429 81.945 329.753C81.945 329.077 82.0728 328.484 82.3285 327.976C82.587 327.467 82.9506 327.072 83.4194 326.791C83.8881 326.51 84.4421 326.369 85.0813 326.369C85.7205 326.369 86.2745 326.51 86.7433 326.791C87.212 327.072 87.5742 327.467 87.8299 327.976C88.0884 328.484 88.2177 329.077 88.2177 329.753C88.2177 330.429 88.0884 331.02 87.8299 331.526C87.5742 332.031 87.212 332.425 86.7433 332.706C86.2745 332.987 85.7205 333.128 85.0813 333.128ZM85.0898 331.892C85.4364 331.892 85.7262 331.797 85.9592 331.607C86.1921 331.413 86.3654 331.155 86.479 330.831C86.5955 330.507 86.6538 330.146 86.6538 329.749C86.6538 329.348 86.5955 328.986 86.479 328.662C86.3654 328.335 86.1921 328.075 85.9592 327.882C85.7262 327.689 85.4364 327.592 85.0898 327.592C84.7347 327.592 84.4393 327.689 84.2035 327.882C83.9705 328.075 83.7958 328.335 83.6793 328.662C83.5657 328.986 83.5089 329.348 83.5089 329.749C83.5089 330.146 83.5657 330.507 83.6793 330.831C83.7958 331.155 83.9705 331.413 84.2035 331.607C84.4393 331.797 84.7347 331.892 85.0898 331.892ZM91.0696 329.165V333H89.527V326.455H91.0014V327.567H91.0781C91.2287 327.2 91.4688 326.909 91.7983 326.693C92.1307 326.477 92.5412 326.369 93.0298 326.369C93.4815 326.369 93.875 326.466 94.2102 326.659C94.5483 326.852 94.8097 327.132 94.9943 327.499C95.1818 327.865 95.2741 328.31 95.2713 328.832V333H93.7287V329.071C93.7287 328.634 93.6151 328.291 93.3878 328.044C93.1634 327.797 92.8523 327.673 92.4545 327.673C92.1847 327.673 91.9446 327.733 91.7344 327.852C91.527 327.969 91.3636 328.138 91.2443 328.359C91.1278 328.581 91.0696 328.849 91.0696 329.165ZM100.155 326.455V327.648H96.2855V326.455H100.155ZM97.2528 333V325.837C97.2528 325.396 97.3438 325.03 97.5256 324.737C97.7102 324.445 97.9574 324.226 98.267 324.081C98.5767 323.936 98.9205 323.864 99.2983 323.864C99.5653 323.864 99.8026 323.885 100.01 323.928C100.217 323.97 100.371 324.009 100.47 324.043L100.163 325.236C100.098 325.216 100.016 325.196 99.9162 325.176C99.8168 325.153 99.706 325.142 99.5838 325.142C99.2969 325.142 99.0938 325.212 98.9744 325.351C98.858 325.487 98.7997 325.683 98.7997 325.939V333H97.2528ZM103.972 333.128C103.333 333.128 102.779 332.987 102.31 332.706C101.841 332.425 101.478 332.031 101.219 331.526C100.963 331.02 100.836 330.429 100.836 329.753C100.836 329.077 100.963 328.484 101.219 327.976C101.478 327.467 101.841 327.072 102.31 326.791C102.779 326.51 103.333 326.369 103.972 326.369C104.611 326.369 105.165 326.51 105.634 326.791C106.103 327.072 106.465 327.467 106.721 327.976C106.979 328.484 107.108 329.077 107.108 329.753C107.108 330.429 106.979 331.02 106.721 331.526C106.465 332.031 106.103 332.425 105.634 332.706C105.165 332.987 104.611 333.128 103.972 333.128ZM103.98 331.892C104.327 331.892 104.617 331.797 104.85 331.607C105.083 331.413 105.256 331.155 105.37 330.831C105.486 330.507 105.544 330.146 105.544 329.749C105.544 329.348 105.486 328.986 105.37 328.662C105.256 328.335 105.083 328.075 104.85 327.882C104.617 327.689 104.327 327.592 103.98 327.592C103.625 327.592 103.33 327.689 103.094 327.882C102.861 328.075 102.686 328.335 102.57 328.662C102.456 328.986 102.4 329.348 102.4 329.749C102.4 330.146 102.456 330.507 102.57 330.831C102.686 331.155 102.861 331.413 103.094 331.607C103.33 331.797 103.625 331.892 103.98 331.892ZM108.418 333V326.455H109.913V327.545H109.982C110.101 327.168 110.305 326.876 110.595 326.672C110.888 326.464 111.222 326.361 111.597 326.361C111.682 326.361 111.777 326.365 111.882 326.374C111.99 326.379 112.08 326.389 112.151 326.403V327.822C112.085 327.8 111.982 327.78 111.839 327.763C111.7 327.743 111.565 327.733 111.435 327.733C111.153 327.733 110.901 327.794 110.676 327.916C110.455 328.036 110.28 328.202 110.152 328.415C110.024 328.628 109.96 328.874 109.96 329.152V333H108.418ZM113.175 333V326.455H114.65V327.567H114.727C114.863 327.192 115.089 326.899 115.404 326.689C115.719 326.476 116.096 326.369 116.533 326.369C116.977 326.369 117.35 326.477 117.654 326.693C117.961 326.906 118.177 327.197 118.302 327.567H118.37C118.515 327.203 118.759 326.913 119.103 326.697C119.45 326.479 119.86 326.369 120.335 326.369C120.937 326.369 121.428 326.56 121.809 326.94C122.19 327.321 122.38 327.876 122.38 328.607V333H120.833V328.845C120.833 328.439 120.725 328.142 120.509 327.955C120.293 327.764 120.029 327.669 119.717 327.669C119.344 327.669 119.053 327.786 118.843 328.018C118.636 328.249 118.532 328.548 118.532 328.918V333H117.019V328.781C117.019 328.443 116.917 328.173 116.712 327.972C116.511 327.77 116.246 327.669 115.92 327.669C115.698 327.669 115.496 327.726 115.315 327.839C115.133 327.95 114.988 328.108 114.88 328.312C114.772 328.514 114.718 328.75 114.718 329.02V333H113.175ZM123.945 333V326.455H125.488V333H123.945ZM124.721 325.526C124.476 325.526 124.266 325.445 124.09 325.283C123.914 325.118 123.826 324.92 123.826 324.69C123.826 324.457 123.914 324.26 124.09 324.098C124.266 323.933 124.476 323.851 124.721 323.851C124.968 323.851 125.178 323.933 125.351 324.098C125.527 324.26 125.615 324.457 125.615 324.69C125.615 324.92 125.527 325.118 125.351 325.283C125.178 325.445 124.968 325.526 124.721 325.526ZM130.342 326.455V327.648H126.58V326.455H130.342ZM127.509 324.886H129.051V331.031C129.051 331.239 129.082 331.398 129.145 331.509C129.21 331.616 129.295 331.69 129.401 331.73C129.506 331.77 129.622 331.79 129.75 331.79C129.847 331.79 129.935 331.783 130.014 331.768C130.097 331.754 130.159 331.741 130.202 331.73L130.462 332.936C130.379 332.964 130.261 332.996 130.108 333.03C129.957 333.064 129.773 333.084 129.554 333.089C129.168 333.101 128.82 333.043 128.51 332.915C128.2 332.784 127.955 332.582 127.773 332.31C127.594 332.037 127.506 331.696 127.509 331.287V324.886ZM132.591 335.455C132.381 335.455 132.186 335.438 132.007 335.403C131.831 335.372 131.691 335.335 131.586 335.293L131.944 334.091C132.168 334.156 132.368 334.188 132.544 334.185C132.721 334.182 132.875 334.126 133.009 334.018C133.145 333.913 133.26 333.737 133.354 333.49L133.486 333.136L131.113 326.455H132.749L134.257 331.398H134.326L135.838 326.455H137.479L134.858 333.793C134.736 334.139 134.574 334.436 134.373 334.683C134.171 334.933 133.924 335.124 133.631 335.254C133.341 335.388 132.995 335.455 132.591 335.455Z" fill="#326273"/>
<path d="M338.553 130.672C338.513 130.3 338.346 130.01 338.05 129.803C337.757 129.595 337.377 129.491 336.908 129.491C336.578 129.491 336.296 129.541 336.06 129.641C335.824 129.74 335.644 129.875 335.519 130.045C335.394 130.216 335.33 130.411 335.327 130.629C335.327 130.811 335.368 130.969 335.451 131.102C335.536 131.236 335.651 131.349 335.796 131.443C335.941 131.534 336.101 131.611 336.277 131.673C336.453 131.736 336.631 131.788 336.81 131.831L337.628 132.036C337.958 132.112 338.275 132.216 338.578 132.347C338.885 132.477 339.159 132.642 339.401 132.841C339.645 133.04 339.838 133.28 339.98 133.561C340.123 133.842 340.194 134.172 340.194 134.55C340.194 135.061 340.063 135.511 339.801 135.901C339.54 136.287 339.162 136.589 338.668 136.808C338.176 137.024 337.581 137.132 336.882 137.132C336.203 137.132 335.614 137.027 335.114 136.817C334.617 136.607 334.228 136.3 333.946 135.896C333.668 135.493 333.517 135.001 333.495 134.422H335.05C335.073 134.726 335.167 134.979 335.331 135.18C335.496 135.382 335.711 135.533 335.975 135.632C336.242 135.732 336.54 135.781 336.87 135.781C337.213 135.781 337.515 135.73 337.773 135.628C338.034 135.523 338.239 135.378 338.387 135.193C338.534 135.006 338.61 134.787 338.613 134.537C338.61 134.31 338.543 134.122 338.412 133.974C338.282 133.824 338.098 133.699 337.863 133.599C337.63 133.497 337.357 133.406 337.044 133.327L336.051 133.071C335.333 132.886 334.765 132.607 334.347 132.232C333.932 131.854 333.725 131.352 333.725 130.727C333.725 130.213 333.864 129.763 334.142 129.376C334.424 128.99 334.806 128.69 335.289 128.477C335.772 128.261 336.319 128.153 336.929 128.153C337.549 128.153 338.091 128.261 338.557 128.477C339.026 128.69 339.394 128.987 339.661 129.368C339.928 129.746 340.066 130.18 340.074 130.672H338.553ZM344.803 130.455V131.648H341.04V130.455H344.803ZM341.969 128.886H343.512V135.031C343.512 135.239 343.543 135.398 343.606 135.509C343.671 135.616 343.756 135.69 343.862 135.73C343.967 135.77 344.083 135.79 344.211 135.79C344.308 135.79 344.396 135.783 344.475 135.768C344.558 135.754 344.62 135.741 344.663 135.73L344.923 136.936C344.84 136.964 344.722 136.996 344.569 137.03C344.418 137.064 344.234 137.084 344.015 137.089C343.629 137.101 343.281 137.043 342.971 136.915C342.661 136.784 342.415 136.582 342.234 136.31C342.055 136.037 341.967 135.696 341.969 135.287V128.886ZM346.093 137V130.455H347.589V131.545H347.657C347.777 131.168 347.981 130.876 348.271 130.672C348.564 130.464 348.897 130.361 349.272 130.361C349.358 130.361 349.453 130.365 349.558 130.374C349.666 130.379 349.755 130.389 349.826 130.403V131.822C349.761 131.8 349.657 131.78 349.515 131.763C349.376 131.743 349.241 131.733 349.11 131.733C348.829 131.733 348.576 131.794 348.352 131.916C348.13 132.036 347.956 132.202 347.828 132.415C347.7 132.628 347.636 132.874 347.636 133.152V137H346.093ZM353.479 137.128C352.823 137.128 352.256 136.991 351.779 136.719C351.305 136.443 350.94 136.054 350.684 135.551C350.428 135.045 350.3 134.45 350.3 133.766C350.3 133.092 350.428 132.501 350.684 131.993C350.942 131.482 351.303 131.084 351.766 130.8C352.229 130.513 352.773 130.369 353.398 130.369C353.802 130.369 354.183 130.435 354.54 130.565C354.901 130.693 355.219 130.892 355.495 131.162C355.773 131.432 355.992 131.776 356.151 132.193C356.31 132.608 356.39 133.102 356.39 133.676V134.149H351.025V133.109H354.911C354.908 132.814 354.844 132.551 354.719 132.321C354.594 132.088 354.42 131.905 354.195 131.771C353.974 131.638 353.715 131.571 353.42 131.571C353.104 131.571 352.827 131.648 352.589 131.801C352.35 131.952 352.164 132.151 352.031 132.398C351.9 132.642 351.833 132.911 351.83 133.203V134.111C351.83 134.491 351.9 134.818 352.039 135.091C352.178 135.361 352.373 135.568 352.623 135.713C352.873 135.855 353.165 135.926 353.501 135.926C353.725 135.926 353.928 135.895 354.11 135.832C354.292 135.767 354.45 135.672 354.583 135.547C354.717 135.422 354.817 135.267 354.886 135.082L356.326 135.244C356.235 135.625 356.062 135.957 355.806 136.241C355.553 136.523 355.229 136.741 354.835 136.898C354.44 137.051 353.988 137.128 353.479 137.128ZM362.868 132.185L361.462 132.338C361.422 132.196 361.353 132.062 361.253 131.938C361.157 131.812 361.026 131.712 360.861 131.635C360.696 131.558 360.495 131.52 360.256 131.52C359.935 131.52 359.665 131.589 359.446 131.729C359.23 131.868 359.124 132.048 359.127 132.27C359.124 132.46 359.194 132.615 359.336 132.734C359.48 132.854 359.719 132.952 360.051 133.028L361.168 133.267C361.787 133.401 362.248 133.612 362.549 133.902C362.853 134.192 363.006 134.571 363.009 135.04C363.006 135.452 362.885 135.815 362.647 136.131C362.411 136.443 362.083 136.687 361.662 136.864C361.242 137.04 360.759 137.128 360.213 137.128C359.412 137.128 358.767 136.96 358.279 136.625C357.79 136.287 357.499 135.817 357.405 135.214L358.909 135.07C358.978 135.365 359.123 135.588 359.344 135.739C359.566 135.889 359.854 135.964 360.209 135.964C360.576 135.964 360.87 135.889 361.091 135.739C361.316 135.588 361.428 135.402 361.428 135.18C361.428 134.993 361.355 134.838 361.211 134.716C361.069 134.594 360.847 134.5 360.546 134.435L359.429 134.2C358.801 134.07 358.337 133.849 358.036 133.54C357.735 133.227 357.586 132.832 357.588 132.355C357.586 131.952 357.695 131.602 357.917 131.307C358.141 131.009 358.452 130.778 358.85 130.616C359.25 130.452 359.712 130.369 360.235 130.369C361.002 130.369 361.605 130.533 362.046 130.859C362.489 131.186 362.763 131.628 362.868 132.185ZM369.454 132.185L368.048 132.338C368.008 132.196 367.939 132.062 367.839 131.938C367.743 131.812 367.612 131.712 367.447 131.635C367.282 131.558 367.081 131.52 366.842 131.52C366.521 131.52 366.251 131.589 366.032 131.729C365.816 131.868 365.71 132.048 365.713 132.27C365.71 132.46 365.779 132.615 365.922 132.734C366.066 132.854 366.305 132.952 366.637 133.028L367.754 133.267C368.373 133.401 368.833 133.612 369.135 133.902C369.439 134.192 369.592 134.571 369.595 135.04C369.592 135.452 369.471 135.815 369.233 136.131C368.997 136.443 368.669 136.687 368.248 136.864C367.828 137.04 367.345 137.128 366.799 137.128C365.998 137.128 365.353 136.96 364.865 136.625C364.376 136.287 364.085 135.817 363.991 135.214L365.495 135.07C365.564 135.365 365.708 135.588 365.93 135.739C366.152 135.889 366.44 135.964 366.795 135.964C367.162 135.964 367.456 135.889 367.677 135.739C367.902 135.588 368.014 135.402 368.014 135.18C368.014 134.993 367.941 134.838 367.797 134.716C367.654 134.594 367.433 134.5 367.132 134.435L366.015 134.2C365.387 134.07 364.923 133.849 364.622 133.54C364.321 133.227 364.172 132.832 364.174 132.355C364.172 131.952 364.281 131.602 364.502 131.307C364.727 131.009 365.038 130.778 365.436 130.616C365.836 130.452 366.298 130.369 366.821 130.369C367.588 130.369 368.191 130.533 368.632 130.859C369.075 131.186 369.349 131.628 369.454 132.185ZM324.778 144.598V143.273H331.741V144.598H329.044V152H327.475V144.598H324.778ZM334.921 152.128C334.282 152.128 333.728 151.987 333.259 151.706C332.79 151.425 332.427 151.031 332.168 150.526C331.913 150.02 331.785 149.429 331.785 148.753C331.785 148.077 331.913 147.484 332.168 146.976C332.427 146.467 332.79 146.072 333.259 145.791C333.728 145.51 334.282 145.369 334.921 145.369C335.56 145.369 336.114 145.51 336.583 145.791C337.052 146.072 337.414 146.467 337.67 146.976C337.928 147.484 338.058 148.077 338.058 148.753C338.058 149.429 337.928 150.02 337.67 150.526C337.414 151.031 337.052 151.425 336.583 151.706C336.114 151.987 335.56 152.128 334.921 152.128ZM334.93 150.892C335.276 150.892 335.566 150.797 335.799 150.607C336.032 150.413 336.205 150.155 336.319 149.831C336.435 149.507 336.494 149.146 336.494 148.749C336.494 148.348 336.435 147.986 336.319 147.662C336.205 147.335 336.032 147.075 335.799 146.882C335.566 146.689 335.276 146.592 334.93 146.592C334.575 146.592 334.279 146.689 334.043 146.882C333.81 147.075 333.636 147.335 333.519 147.662C333.406 147.986 333.349 148.348 333.349 148.749C333.349 149.146 333.406 149.507 333.519 149.831C333.636 150.155 333.81 150.413 334.043 150.607C334.279 150.797 334.575 150.892 334.93 150.892ZM340.909 143.273V152H339.367V143.273H340.909ZM345.393 152.128C344.737 152.128 344.17 151.991 343.693 151.719C343.219 151.443 342.854 151.054 342.598 150.551C342.342 150.045 342.214 149.45 342.214 148.766C342.214 148.092 342.342 147.501 342.598 146.993C342.857 146.482 343.217 146.084 343.68 145.8C344.143 145.513 344.688 145.369 345.312 145.369C345.716 145.369 346.097 145.435 346.455 145.565C346.815 145.693 347.134 145.892 347.409 146.162C347.688 146.432 347.906 146.776 348.065 147.193C348.224 147.608 348.304 148.102 348.304 148.676V149.149H342.939V148.109H346.825C346.822 147.814 346.759 147.551 346.634 147.321C346.509 147.088 346.334 146.905 346.109 146.771C345.888 146.638 345.629 146.571 345.334 146.571C345.018 146.571 344.741 146.648 344.503 146.801C344.264 146.952 344.078 147.151 343.945 147.398C343.814 147.642 343.747 147.911 343.744 148.203V149.111C343.744 149.491 343.814 149.818 343.953 150.091C344.092 150.361 344.287 150.568 344.537 150.713C344.787 150.855 345.08 150.926 345.415 150.926C345.639 150.926 345.842 150.895 346.024 150.832C346.206 150.767 346.364 150.672 346.497 150.547C346.631 150.422 346.732 150.267 346.8 150.082L348.24 150.244C348.149 150.625 347.976 150.957 347.72 151.241C347.467 151.523 347.143 151.741 346.749 151.898C346.354 152.051 345.902 152.128 345.393 152.128ZM349.609 152V145.455H351.105V146.545H351.173C351.292 146.168 351.497 145.876 351.787 145.672C352.079 145.464 352.413 145.361 352.788 145.361C352.873 145.361 352.968 145.365 353.074 145.374C353.181 145.379 353.271 145.389 353.342 145.403V146.822C353.277 146.8 353.173 146.78 353.031 146.763C352.892 146.743 352.757 146.733 352.626 146.733C352.345 146.733 352.092 146.794 351.868 146.916C351.646 147.036 351.471 147.202 351.343 147.415C351.216 147.628 351.152 147.874 351.152 148.152V152H349.609ZM356.133 152.132C355.718 152.132 355.345 152.058 355.012 151.911C354.683 151.76 354.422 151.538 354.228 151.246C354.038 150.953 353.943 150.592 353.943 150.163C353.943 149.794 354.011 149.489 354.147 149.247C354.284 149.006 354.47 148.812 354.706 148.668C354.941 148.523 355.207 148.413 355.502 148.339C355.801 148.263 356.109 148.207 356.427 148.173C356.811 148.134 357.122 148.098 357.36 148.067C357.599 148.033 357.772 147.982 357.88 147.913C357.991 147.842 358.047 147.733 358.047 147.585V147.56C358.047 147.239 357.951 146.99 357.761 146.814C357.571 146.638 357.297 146.55 356.939 146.55C356.561 146.55 356.261 146.632 356.039 146.797C355.821 146.962 355.673 147.156 355.596 147.381L354.156 147.176C354.27 146.778 354.457 146.446 354.718 146.179C354.98 145.909 355.299 145.707 355.677 145.574C356.055 145.438 356.473 145.369 356.93 145.369C357.245 145.369 357.559 145.406 357.872 145.48C358.184 145.554 358.47 145.676 358.728 145.847C358.987 146.014 359.194 146.243 359.35 146.533C359.51 146.822 359.589 147.185 359.589 147.619V152H358.106V151.101H358.055C357.961 151.283 357.829 151.453 357.659 151.612C357.491 151.768 357.279 151.895 357.024 151.991C356.771 152.085 356.474 152.132 356.133 152.132ZM356.534 150.999C356.843 150.999 357.112 150.937 357.339 150.815C357.566 150.69 357.741 150.526 357.863 150.321C357.988 150.116 358.051 149.893 358.051 149.652V148.881C358.002 148.92 357.92 148.957 357.804 148.991C357.69 149.026 357.562 149.055 357.42 149.081C357.278 149.107 357.137 149.129 356.998 149.149C356.859 149.169 356.738 149.186 356.636 149.2C356.406 149.232 356.2 149.283 356.018 149.354C355.836 149.425 355.693 149.524 355.588 149.652C355.483 149.777 355.43 149.939 355.43 150.138C355.43 150.422 355.534 150.636 355.741 150.781C355.949 150.926 356.213 150.999 356.534 150.999ZM362.683 148.165V152H361.14V145.455H362.615V146.567H362.691C362.842 146.2 363.082 145.909 363.412 145.693C363.744 145.477 364.154 145.369 364.643 145.369C365.095 145.369 365.488 145.466 365.824 145.659C366.162 145.852 366.423 146.132 366.608 146.499C366.795 146.865 366.887 147.31 366.885 147.832V152H365.342V148.071C365.342 147.634 365.228 147.291 365.001 147.044C364.777 146.797 364.466 146.673 364.068 146.673C363.798 146.673 363.558 146.733 363.348 146.852C363.14 146.969 362.977 147.138 362.858 147.359C362.741 147.581 362.683 147.849 362.683 148.165ZM371.308 152.128C370.654 152.128 370.093 151.984 369.625 151.697C369.159 151.411 368.799 151.014 368.547 150.509C368.297 150 368.172 149.415 368.172 148.753C368.172 148.088 368.299 147.501 368.555 146.993C368.811 146.482 369.172 146.084 369.637 145.8C370.106 145.513 370.66 145.369 371.299 145.369C371.831 145.369 372.301 145.467 372.71 145.663C373.122 145.857 373.45 146.131 373.694 146.486C373.939 146.838 374.078 147.25 374.112 147.722H372.637C372.578 147.406 372.436 147.143 372.211 146.933C371.99 146.72 371.693 146.614 371.321 146.614C371.005 146.614 370.728 146.699 370.49 146.869C370.251 147.037 370.065 147.278 369.931 147.594C369.801 147.909 369.735 148.287 369.735 148.727C369.735 149.173 369.801 149.557 369.931 149.878C370.062 150.196 370.245 150.442 370.481 150.615C370.72 150.786 371 150.871 371.321 150.871C371.548 150.871 371.751 150.828 371.93 150.743C372.112 150.655 372.264 150.528 372.386 150.364C372.508 150.199 372.592 149.999 372.637 149.763H374.112C374.075 150.226 373.939 150.636 373.703 150.994C373.467 151.349 373.146 151.628 372.74 151.83C372.333 152.028 371.856 152.128 371.308 152.128ZM378.276 152.128C377.62 152.128 377.053 151.991 376.576 151.719C376.102 151.443 375.737 151.054 375.481 150.551C375.225 150.045 375.097 149.45 375.097 148.766C375.097 148.092 375.225 147.501 375.481 146.993C375.739 146.482 376.1 146.084 376.563 145.8C377.026 145.513 377.57 145.369 378.195 145.369C378.599 145.369 378.979 145.435 379.337 145.565C379.698 145.693 380.016 145.892 380.292 146.162C380.57 146.432 380.789 146.776 380.948 147.193C381.107 147.608 381.187 148.102 381.187 148.676V149.149H375.822V148.109H379.708C379.705 147.814 379.641 147.551 379.516 147.321C379.391 147.088 379.217 146.905 378.992 146.771C378.771 146.638 378.512 146.571 378.217 146.571C377.901 146.571 377.624 146.648 377.386 146.801C377.147 146.952 376.961 147.151 376.827 147.398C376.697 147.642 376.63 147.911 376.627 148.203V149.111C376.627 149.491 376.697 149.818 376.836 150.091C376.975 150.361 377.17 150.568 377.42 150.713C377.67 150.855 377.962 150.926 378.298 150.926C378.522 150.926 378.725 150.895 378.907 150.832C379.089 150.767 379.246 150.672 379.38 150.547C379.513 150.422 379.614 150.267 379.683 150.082L381.123 150.244C381.032 150.625 380.859 150.957 380.603 151.241C380.35 151.523 380.026 151.741 379.631 151.898C379.237 152.051 378.785 152.128 378.276 152.128Z" fill="#326273"/>
</svg>
