<svg width="1270" height="1225" viewBox="0 0 1270 1225" fill="none" xmlns="http://www.w3.org/2000/svg">
<g filter="url(#filter0_d_181_29)">
<path d="M358.645 1209.65C340.641 1127.26 339.162 1080.06 347.321 994.606C363.531 976.844 614.594 952.984 687.178 965.592C705.212 1053.56 711.992 1181.46 702.683 1182.71C698.837 1191.29 387.494 1218.27 358.645 1209.65Z" fill="#AAC7D3"/>
<path d="M528.394 1105.44C528.58 1105.54 528.814 1105.52 528.975 1105.38L564.096 1074.66L701.931 1182.76C701.765 1182.87 701.537 1182.98 701.242 1183.11C700.572 1183.4 699.614 1183.71 698.373 1184.04C695.897 1184.7 692.358 1185.42 687.894 1186.19C678.969 1187.73 666.389 1189.46 651.302 1191.26C621.13 1194.86 580.957 1198.76 539.999 1202.13C499.042 1205.5 457.306 1208.33 424.009 1209.79C407.36 1210.51 392.826 1210.89 381.556 1210.82C375.921 1210.79 371.107 1210.64 367.256 1210.37C363.942 1210.13 361.367 1209.81 359.599 1209.39L485.241 1080.27L528.394 1105.44ZM702.793 1182.17L564.867 1073.99L565.221 1073.69C565.759 1073.23 566.554 1072.54 567.583 1071.66C569.643 1069.89 572.643 1067.3 576.403 1064.06C583.924 1057.57 594.488 1048.42 606.66 1037.81C630.798 1016.76 661.264 989.931 686.864 966.556C695.78 1010.35 701.919 1063.87 704.685 1106.7C706.078 1128.26 706.615 1147.1 706.224 1160.62C706.028 1167.38 705.601 1172.79 704.937 1176.55C704.604 1178.43 704.217 1179.86 703.784 1180.83C703.568 1181.32 703.35 1181.67 703.141 1181.89C703.013 1182.03 702.896 1182.12 702.793 1182.17ZM358.935 1208.64C341.187 1127.12 339.703 1080.05 347.743 995.453L484.362 1079.74L358.935 1208.64ZM528.587 1104.39L485.418 1079.22L485.407 1079.21L348.128 994.516C349.149 993.615 350.844 992.662 353.205 991.676C355.924 990.54 359.464 989.386 363.733 988.225C372.268 985.903 383.67 983.567 397.138 981.299C424.072 976.764 459.23 972.512 496.154 969.208C533.078 965.905 571.76 963.55 605.744 962.809C639.115 962.081 667.922 962.91 686.084 965.914C660.514 989.258 630.106 1016.04 606.002 1037.06C593.832 1047.67 583.27 1056.81 575.75 1063.3C571.99 1066.55 568.991 1069.13 566.932 1070.9C565.902 1071.78 565.107 1072.47 564.57 1072.93L563.96 1073.45L563.805 1073.58L563.766 1073.62L563.757 1073.63L563.754 1073.63C563.754 1073.63 563.753 1073.63 564.075 1074L563.753 1073.63L563.749 1073.63L528.587 1104.39Z" stroke="#0E1231" stroke-linejoin="round"/>
</g>
<path d="M372.977 1026.84C372.977 1026.84 361.033 965.684 364.376 953.475C366.45 945.896 363.252 878.255 360.527 828.032C358.861 797.341 371.698 784.775 385.035 810.081C398.371 835.388 492.654 985.563 503.474 1010.88C508.848 1023.46 482.986 1037.35 470.464 1041.49C457.941 1045.63 441.3 1074.05 436.287 1068.95C431.556 1064.13 421.223 1068.72 399.043 1055.33C376.863 1041.94 372.977 1026.84 372.977 1026.84Z" fill="#E9A83C"/>
<path d="M554.525 999.348C549.624 979.702 557.725 919.223 552.752 891.019C550.236 876.751 525.004 821.31 526.283 801.624C527.532 782.395 549.109 786.005 555.265 798.748C561.421 811.49 604.109 867.444 604.109 867.444C604.109 867.444 684.818 939.112 666.439 969.298C648.06 999.484 649.771 1025.32 639.17 1025.68C628.569 1026.03 559.425 1019 554.525 999.348Z" fill="#E9A83C"/>
<path d="M372.977 1026.84C372.977 1026.84 361.033 965.684 364.376 953.475C366.45 945.896 363.252 878.255 360.527 828.032C358.861 797.341 371.698 784.775 385.035 810.081C398.371 835.388 492.654 985.563 503.474 1010.88C508.848 1023.46 482.986 1037.35 470.464 1041.49C457.941 1045.63 441.3 1074.05 436.287 1068.95C431.556 1064.13 421.223 1068.72 399.043 1055.33C376.863 1041.94 372.977 1026.84 372.977 1026.84Z" stroke="#C0C29B"/>
<path d="M554.525 999.348C549.624 979.702 557.725 919.223 552.752 891.019C550.236 876.751 525.004 821.31 526.283 801.624C527.532 782.395 549.109 786.005 555.265 798.748C561.421 811.49 604.109 867.444 604.109 867.444C604.109 867.444 684.818 939.112 666.439 969.298C648.06 999.484 649.771 1025.32 639.17 1025.68C628.569 1026.03 559.425 1019 554.525 999.348Z" stroke="#C0C29B"/>
<path d="M559.741 238.402C492.241 282.902 475.241 365.402 475.241 365.402L596.741 453.402C596.741 453.402 699.241 535.902 717.241 547.902C735.241 559.902 831.241 394.402 845.741 373.902C860.241 353.402 942.741 265.902 942.741 265.902C942.741 265.902 1013.74 208.402 1074.24 193.902C1134.74 179.402 1056.74 145.902 1031.24 139.402C1005.74 132.902 950.741 127.402 901.741 124.402C852.741 121.402 717.241 163.902 686.241 171.902C655.241 179.902 627.241 193.902 559.741 238.402Z" fill="#E3E5B9" stroke="#C0C29B" stroke-width="7"/>
<path d="M100.241 487.751C100.241 471.751 101.241 443.751 144.241 410.251C187.241 376.751 360.241 342.751 360.241 342.751C360.241 342.751 495.241 350.751 516.241 359.251C537.241 367.751 631.241 429.251 631.241 429.251C668.241 459.918 724.241 504.251 744.741 521.251C765.241 538.251 828.741 572.251 844.241 577.751C859.741 583.251 933.241 594.251 954.241 597.751C975.241 601.251 1015.24 638.751 1020.24 641.751C1025.24 644.751 1061.24 674.251 1067.74 692.251C1074.24 710.251 1080.24 767.751 1070.24 772.751C1060.24 777.751 991.241 797.751 988.241 831.751C985.241 865.751 976.741 883.251 962.741 886.251C948.741 889.251 907.241 901.751 873.741 891.251C840.241 880.751 806.741 859.751 806.741 859.751C806.741 859.751 744.741 817.751 709.241 817.751H611.741H450.241C391.741 817.751 378.741 805.418 346.241 799.251C346.241 799.251 246.741 764.751 216.241 733.251C185.741 701.751 133.941 638.451 130.741 633.251C127.541 628.051 105.241 600.751 100.241 563.251C95.241 525.751 100.241 503.751 100.241 487.751Z" fill="#E3E5B9"/>
<path d="M985.891 802.041C1001.89 786.041 1030.89 757.041 1048.89 760.541C1066.89 764.041 1168.39 828.541 1175.39 847.041C1182.39 865.541 1151.39 893.541 1128.89 897.541C1106.39 901.541 1036.89 904.541 1018.89 897.541C1000.89 890.541 971.391 888.541 967.391 865.541C963.391 842.541 969.891 818.041 985.891 802.041Z" fill="#E9A83C"/>
<path d="M921.425 773.242C888.934 797.392 918.401 860.187 950.601 828.089C977.515 796.939 947.774 756.489 921.425 773.242Z" fill="#A0771E" stroke="#A0771E" stroke-width="2" stroke-linecap="round" stroke-linejoin="round"/>
<path d="M288.241 197.251C267.742 182.251 70.2411 88.7509 34.7415 20.751C-0.758171 -47.249 4.24148 113.751 4.24148 113.751C5.24107 239.751 208.742 510.751 302.741 593.751C396.741 676.751 524.741 621.251 535.741 605.251C546.741 589.251 611.741 522.751 516.242 407.751C420.742 292.751 455.241 335.251 437.741 316.251C420.242 297.251 308.741 212.251 288.241 197.251Z" fill="#E3E5B9" stroke="#C0C29B" stroke-width="8"/>
<path d="M526.627 613.826C525.849 620.83 518.797 629.916 513.087 633.587C507.038 637.476 501.331 639.322 494.515 641.089C485.243 643.493 474.279 647.557 464.782 648.317C435.691 650.644 406.355 663.672 376.772 656.276C369.897 654.557 367.819 649.454 362.774 645.206C358.302 641.44 354.906 640.017 352.07 634.502C346.506 623.682 338.594 614.445 328.284 608.062C313.994 599.216 293.776 592.385 285.468 576.957C283.632 573.547 281.629 570.016 285.285 574.67C294.698 586.65 307.409 594.195 321.148 600.286C333.059 605.566 346.784 608.398 359.481 611.265C367.472 613.069 374.831 616.666 382.81 618.4C393.199 620.659 404.386 621.655 414.556 624.622C425.067 627.687 441.804 624.293 450.144 631.117C455.715 635.675 465.246 633.587 471.918 633.587C479.585 633.587 464.952 633.587 463.135 633.587C450.51 633.587 425.26 633.587 425.26 633.587C425.26 633.587 488.679 633.955 519.034 626.085C528.321 623.678 539.866 616.409 547.212 610.533C549.306 608.857 546.361 604.336 549.682 603.946C552.792 603.58 556.795 600.652 551.329 600.652" stroke="#E3E5B9" stroke-width="37" stroke-linecap="round"/>
<defs>
<filter id="filter0_d_181_29" x="333.671" y="957.161" width="382.077" height="267.069" filterUnits="userSpaceOnUse" color-interpolation-filters="sRGB">
<feFlood flood-opacity="0" result="BackgroundImageFix"/>
<feColorMatrix in="SourceAlpha" type="matrix" values="0 0 0 0 0 0 0 0 0 0 0 0 0 0 0 0 0 0 127 0" result="hardAlpha"/>
<feOffset dy="4"/>
<feGaussianBlur stdDeviation="4.45"/>
<feComposite in2="hardAlpha" operator="out"/>
<feColorMatrix type="matrix" values="0 0 0 0 0 0 0 0 0 0 0 0 0 0 0 0 0 0 0.25 0"/>
<feBlend mode="normal" in2="BackgroundImageFix" result="effect1_dropShadow_181_29"/>
<feBlend mode="normal" in="SourceGraphic" in2="effect1_dropShadow_181_29" result="shape"/>
</filter>
</defs>
</svg>
